%TF.GenerationSoftware,KiCad,Pcbnew,8.0.4*%
%TF.CreationDate,2024-08-28T09:49:03+09:00*%
%TF.ProjectId,powerfeather-lora-gps-reference,706f7765-7266-4656-9174-6865722d6c6f,rev?*%
%TF.SameCoordinates,Original*%
%TF.FileFunction,Legend,Top*%
%TF.FilePolarity,Positive*%
%FSLAX46Y46*%
G04 Gerber Fmt 4.6, Leading zero omitted, Abs format (unit mm)*
G04 Created by KiCad (PCBNEW 8.0.4) date 2024-08-28 09:49:03*
%MOMM*%
%LPD*%
G01*
G04 APERTURE LIST*
%ADD10C,0.300000*%
%ADD11C,0.400000*%
%ADD12C,0.150000*%
%ADD13C,0.120000*%
%ADD14C,0.127000*%
%ADD15C,0.200000*%
G04 APERTURE END LIST*
D10*
X138720000Y-86830000D02*
X141180000Y-86830000D01*
X122160000Y-102120000D02*
X123490000Y-100760000D01*
D11*
X119850000Y-76030000D02*
X119850000Y-115370000D01*
D10*
X138760000Y-100920000D02*
X140140000Y-102310000D01*
X138770000Y-94450000D02*
X141230000Y-94450000D01*
X138780000Y-91920000D02*
X141240000Y-91920000D01*
X140220000Y-98300000D02*
X141060000Y-99140000D01*
D11*
X142410000Y-86200000D02*
X142420000Y-125480000D01*
D10*
X120980000Y-94420000D02*
X123440000Y-94420000D01*
X138800000Y-98300000D02*
X140220000Y-98300000D01*
X140120000Y-122170000D02*
X138980000Y-123350000D01*
X122160000Y-108530000D02*
X122160000Y-102120000D01*
X140080000Y-115980000D02*
X140080000Y-119740000D01*
X140140000Y-102310000D02*
X140160000Y-111080000D01*
X141220000Y-114845000D02*
X140080000Y-115975000D01*
X121000000Y-96970000D02*
X123460000Y-96970000D01*
X120980000Y-84260000D02*
X123440000Y-84260000D01*
X138810000Y-89370000D02*
X141270000Y-89370000D01*
X121040000Y-109640000D02*
X122160000Y-108530000D01*
X141230000Y-119820000D02*
X140110000Y-120960000D01*
X140080000Y-119740000D02*
X138960000Y-120880000D01*
X140160000Y-111080000D02*
X141100000Y-112060000D01*
X121080000Y-79190000D02*
X123540000Y-79190000D01*
X121010000Y-76610000D02*
X123470000Y-76610000D01*
X121080000Y-81750000D02*
X123540000Y-81750000D01*
X140110000Y-120960000D02*
X140110000Y-122150000D01*
D12*
X122640180Y-119976779D02*
X123640180Y-119976779D01*
X123640180Y-119976779D02*
X123640180Y-120214874D01*
X123640180Y-120214874D02*
X123592561Y-120357731D01*
X123592561Y-120357731D02*
X123497323Y-120452969D01*
X123497323Y-120452969D02*
X123402085Y-120500588D01*
X123402085Y-120500588D02*
X123211609Y-120548207D01*
X123211609Y-120548207D02*
X123068752Y-120548207D01*
X123068752Y-120548207D02*
X122878276Y-120500588D01*
X122878276Y-120500588D02*
X122783038Y-120452969D01*
X122783038Y-120452969D02*
X122687800Y-120357731D01*
X122687800Y-120357731D02*
X122640180Y-120214874D01*
X122640180Y-120214874D02*
X122640180Y-119976779D01*
X123163990Y-121310112D02*
X123116371Y-121452969D01*
X123116371Y-121452969D02*
X123068752Y-121500588D01*
X123068752Y-121500588D02*
X122973514Y-121548207D01*
X122973514Y-121548207D02*
X122830657Y-121548207D01*
X122830657Y-121548207D02*
X122735419Y-121500588D01*
X122735419Y-121500588D02*
X122687800Y-121452969D01*
X122687800Y-121452969D02*
X122640180Y-121357731D01*
X122640180Y-121357731D02*
X122640180Y-120976779D01*
X122640180Y-120976779D02*
X123640180Y-120976779D01*
X123640180Y-120976779D02*
X123640180Y-121310112D01*
X123640180Y-121310112D02*
X123592561Y-121405350D01*
X123592561Y-121405350D02*
X123544942Y-121452969D01*
X123544942Y-121452969D02*
X123449704Y-121500588D01*
X123449704Y-121500588D02*
X123354466Y-121500588D01*
X123354466Y-121500588D02*
X123259228Y-121452969D01*
X123259228Y-121452969D02*
X123211609Y-121405350D01*
X123211609Y-121405350D02*
X123163990Y-121310112D01*
X123163990Y-121310112D02*
X123163990Y-120976779D01*
X123592561Y-122500588D02*
X123640180Y-122405350D01*
X123640180Y-122405350D02*
X123640180Y-122262493D01*
X123640180Y-122262493D02*
X123592561Y-122119636D01*
X123592561Y-122119636D02*
X123497323Y-122024398D01*
X123497323Y-122024398D02*
X123402085Y-121976779D01*
X123402085Y-121976779D02*
X123211609Y-121929160D01*
X123211609Y-121929160D02*
X123068752Y-121929160D01*
X123068752Y-121929160D02*
X122878276Y-121976779D01*
X122878276Y-121976779D02*
X122783038Y-122024398D01*
X122783038Y-122024398D02*
X122687800Y-122119636D01*
X122687800Y-122119636D02*
X122640180Y-122262493D01*
X122640180Y-122262493D02*
X122640180Y-122357731D01*
X122640180Y-122357731D02*
X122687800Y-122500588D01*
X122687800Y-122500588D02*
X122735419Y-122548207D01*
X122735419Y-122548207D02*
X123068752Y-122548207D01*
X123068752Y-122548207D02*
X123068752Y-122357731D01*
X141291133Y-76156779D02*
X141291133Y-76918684D01*
X134269160Y-118134104D02*
X134745350Y-118134104D01*
X134173922Y-118419819D02*
X134507255Y-117419819D01*
X134507255Y-117419819D02*
X134840588Y-118419819D01*
X135173922Y-118419819D02*
X135173922Y-117419819D01*
X135173922Y-117419819D02*
X135745350Y-118419819D01*
X135745350Y-118419819D02*
X135745350Y-117419819D01*
X136078684Y-117419819D02*
X136650112Y-117419819D01*
X136364398Y-118419819D02*
X136364398Y-117419819D01*
X121071133Y-125366779D02*
X121071133Y-126128684D01*
X130527143Y-88744819D02*
X131146190Y-88744819D01*
X131146190Y-88744819D02*
X130812857Y-89125771D01*
X130812857Y-89125771D02*
X130955714Y-89125771D01*
X130955714Y-89125771D02*
X131050952Y-89173390D01*
X131050952Y-89173390D02*
X131098571Y-89221009D01*
X131098571Y-89221009D02*
X131146190Y-89316247D01*
X131146190Y-89316247D02*
X131146190Y-89554342D01*
X131146190Y-89554342D02*
X131098571Y-89649580D01*
X131098571Y-89649580D02*
X131050952Y-89697200D01*
X131050952Y-89697200D02*
X130955714Y-89744819D01*
X130955714Y-89744819D02*
X130670000Y-89744819D01*
X130670000Y-89744819D02*
X130574762Y-89697200D01*
X130574762Y-89697200D02*
X130527143Y-89649580D01*
X131527143Y-88840057D02*
X131574762Y-88792438D01*
X131574762Y-88792438D02*
X131670000Y-88744819D01*
X131670000Y-88744819D02*
X131908095Y-88744819D01*
X131908095Y-88744819D02*
X132003333Y-88792438D01*
X132003333Y-88792438D02*
X132050952Y-88840057D01*
X132050952Y-88840057D02*
X132098571Y-88935295D01*
X132098571Y-88935295D02*
X132098571Y-89030533D01*
X132098571Y-89030533D02*
X132050952Y-89173390D01*
X132050952Y-89173390D02*
X131479524Y-89744819D01*
X131479524Y-89744819D02*
X132098571Y-89744819D01*
X132527143Y-89744819D02*
X132527143Y-88744819D01*
X132622381Y-89363866D02*
X132908095Y-89744819D01*
X132908095Y-89078152D02*
X132527143Y-89459104D01*
X133336667Y-89744819D02*
X133336667Y-88744819D01*
X133336667Y-89221009D02*
X133908095Y-89221009D01*
X133908095Y-89744819D02*
X133908095Y-88744819D01*
X134289048Y-89078152D02*
X134812857Y-89078152D01*
X134812857Y-89078152D02*
X134289048Y-89744819D01*
X134289048Y-89744819D02*
X134812857Y-89744819D01*
X128100588Y-99949847D02*
X127529160Y-99949847D01*
X127814874Y-99949847D02*
X127814874Y-98949847D01*
X127814874Y-98949847D02*
X127719636Y-99092704D01*
X127719636Y-99092704D02*
X127624398Y-99187942D01*
X127624398Y-99187942D02*
X127529160Y-99235561D01*
X128719636Y-98949847D02*
X128814874Y-98949847D01*
X128814874Y-98949847D02*
X128910112Y-98997466D01*
X128910112Y-98997466D02*
X128957731Y-99045085D01*
X128957731Y-99045085D02*
X129005350Y-99140323D01*
X129005350Y-99140323D02*
X129052969Y-99330799D01*
X129052969Y-99330799D02*
X129052969Y-99568894D01*
X129052969Y-99568894D02*
X129005350Y-99759370D01*
X129005350Y-99759370D02*
X128957731Y-99854608D01*
X128957731Y-99854608D02*
X128910112Y-99902228D01*
X128910112Y-99902228D02*
X128814874Y-99949847D01*
X128814874Y-99949847D02*
X128719636Y-99949847D01*
X128719636Y-99949847D02*
X128624398Y-99902228D01*
X128624398Y-99902228D02*
X128576779Y-99854608D01*
X128576779Y-99854608D02*
X128529160Y-99759370D01*
X128529160Y-99759370D02*
X128481541Y-99568894D01*
X128481541Y-99568894D02*
X128481541Y-99330799D01*
X128481541Y-99330799D02*
X128529160Y-99140323D01*
X128529160Y-99140323D02*
X128576779Y-99045085D01*
X128576779Y-99045085D02*
X128624398Y-98997466D01*
X128624398Y-98997466D02*
X128719636Y-98949847D01*
X129672017Y-98949847D02*
X129767255Y-98949847D01*
X129767255Y-98949847D02*
X129862493Y-98997466D01*
X129862493Y-98997466D02*
X129910112Y-99045085D01*
X129910112Y-99045085D02*
X129957731Y-99140323D01*
X129957731Y-99140323D02*
X130005350Y-99330799D01*
X130005350Y-99330799D02*
X130005350Y-99568894D01*
X130005350Y-99568894D02*
X129957731Y-99759370D01*
X129957731Y-99759370D02*
X129910112Y-99854608D01*
X129910112Y-99854608D02*
X129862493Y-99902228D01*
X129862493Y-99902228D02*
X129767255Y-99949847D01*
X129767255Y-99949847D02*
X129672017Y-99949847D01*
X129672017Y-99949847D02*
X129576779Y-99902228D01*
X129576779Y-99902228D02*
X129529160Y-99854608D01*
X129529160Y-99854608D02*
X129481541Y-99759370D01*
X129481541Y-99759370D02*
X129433922Y-99568894D01*
X129433922Y-99568894D02*
X129433922Y-99330799D01*
X129433922Y-99330799D02*
X129481541Y-99140323D01*
X129481541Y-99140323D02*
X129529160Y-99045085D01*
X129529160Y-99045085D02*
X129576779Y-98997466D01*
X129576779Y-98997466D02*
X129672017Y-98949847D01*
X127576779Y-100893124D02*
X127576779Y-101559791D01*
X127576779Y-100988362D02*
X127624398Y-100940743D01*
X127624398Y-100940743D02*
X127719636Y-100893124D01*
X127719636Y-100893124D02*
X127862493Y-100893124D01*
X127862493Y-100893124D02*
X127957731Y-100940743D01*
X127957731Y-100940743D02*
X128005350Y-101035981D01*
X128005350Y-101035981D02*
X128005350Y-101559791D01*
X128814874Y-101035981D02*
X128481541Y-101035981D01*
X128481541Y-101559791D02*
X128481541Y-100559791D01*
X128481541Y-100559791D02*
X128957731Y-100559791D01*
X136574819Y-90141428D02*
X136574819Y-90712856D01*
X136574819Y-90427142D02*
X135574819Y-90427142D01*
X135574819Y-90427142D02*
X135717676Y-90522380D01*
X135717676Y-90522380D02*
X135812914Y-90617618D01*
X135812914Y-90617618D02*
X135860533Y-90712856D01*
X136574819Y-89665237D02*
X136574819Y-89474761D01*
X136574819Y-89474761D02*
X136527200Y-89379523D01*
X136527200Y-89379523D02*
X136479580Y-89331904D01*
X136479580Y-89331904D02*
X136336723Y-89236666D01*
X136336723Y-89236666D02*
X136146247Y-89189047D01*
X136146247Y-89189047D02*
X135765295Y-89189047D01*
X135765295Y-89189047D02*
X135670057Y-89236666D01*
X135670057Y-89236666D02*
X135622438Y-89284285D01*
X135622438Y-89284285D02*
X135574819Y-89379523D01*
X135574819Y-89379523D02*
X135574819Y-89569999D01*
X135574819Y-89569999D02*
X135622438Y-89665237D01*
X135622438Y-89665237D02*
X135670057Y-89712856D01*
X135670057Y-89712856D02*
X135765295Y-89760475D01*
X135765295Y-89760475D02*
X136003390Y-89760475D01*
X136003390Y-89760475D02*
X136098628Y-89712856D01*
X136098628Y-89712856D02*
X136146247Y-89665237D01*
X136146247Y-89665237D02*
X136193866Y-89569999D01*
X136193866Y-89569999D02*
X136193866Y-89379523D01*
X136193866Y-89379523D02*
X136146247Y-89284285D01*
X136146247Y-89284285D02*
X136098628Y-89236666D01*
X136098628Y-89236666D02*
X136003390Y-89189047D01*
X135908152Y-88760475D02*
X136908152Y-88760475D01*
X135955771Y-88760475D02*
X135908152Y-88665237D01*
X135908152Y-88665237D02*
X135908152Y-88474761D01*
X135908152Y-88474761D02*
X135955771Y-88379523D01*
X135955771Y-88379523D02*
X136003390Y-88331904D01*
X136003390Y-88331904D02*
X136098628Y-88284285D01*
X136098628Y-88284285D02*
X136384342Y-88284285D01*
X136384342Y-88284285D02*
X136479580Y-88331904D01*
X136479580Y-88331904D02*
X136527200Y-88379523D01*
X136527200Y-88379523D02*
X136574819Y-88474761D01*
X136574819Y-88474761D02*
X136574819Y-88665237D01*
X136574819Y-88665237D02*
X136527200Y-88760475D01*
X136051009Y-87522380D02*
X136051009Y-87855713D01*
X136574819Y-87855713D02*
X135574819Y-87855713D01*
X135574819Y-87855713D02*
X135574819Y-87379523D01*
X134894761Y-101674819D02*
X134418571Y-101674819D01*
X134418571Y-101674819D02*
X134418571Y-100674819D01*
X135370952Y-101674819D02*
X135275714Y-101627200D01*
X135275714Y-101627200D02*
X135228095Y-101579580D01*
X135228095Y-101579580D02*
X135180476Y-101484342D01*
X135180476Y-101484342D02*
X135180476Y-101198628D01*
X135180476Y-101198628D02*
X135228095Y-101103390D01*
X135228095Y-101103390D02*
X135275714Y-101055771D01*
X135275714Y-101055771D02*
X135370952Y-101008152D01*
X135370952Y-101008152D02*
X135513809Y-101008152D01*
X135513809Y-101008152D02*
X135609047Y-101055771D01*
X135609047Y-101055771D02*
X135656666Y-101103390D01*
X135656666Y-101103390D02*
X135704285Y-101198628D01*
X135704285Y-101198628D02*
X135704285Y-101484342D01*
X135704285Y-101484342D02*
X135656666Y-101579580D01*
X135656666Y-101579580D02*
X135609047Y-101627200D01*
X135609047Y-101627200D02*
X135513809Y-101674819D01*
X135513809Y-101674819D02*
X135370952Y-101674819D01*
X136704285Y-101674819D02*
X136370952Y-101198628D01*
X136132857Y-101674819D02*
X136132857Y-100674819D01*
X136132857Y-100674819D02*
X136513809Y-100674819D01*
X136513809Y-100674819D02*
X136609047Y-100722438D01*
X136609047Y-100722438D02*
X136656666Y-100770057D01*
X136656666Y-100770057D02*
X136704285Y-100865295D01*
X136704285Y-100865295D02*
X136704285Y-101008152D01*
X136704285Y-101008152D02*
X136656666Y-101103390D01*
X136656666Y-101103390D02*
X136609047Y-101151009D01*
X136609047Y-101151009D02*
X136513809Y-101198628D01*
X136513809Y-101198628D02*
X136132857Y-101198628D01*
X137561428Y-101674819D02*
X137561428Y-101151009D01*
X137561428Y-101151009D02*
X137513809Y-101055771D01*
X137513809Y-101055771D02*
X137418571Y-101008152D01*
X137418571Y-101008152D02*
X137228095Y-101008152D01*
X137228095Y-101008152D02*
X137132857Y-101055771D01*
X137561428Y-101627200D02*
X137466190Y-101674819D01*
X137466190Y-101674819D02*
X137228095Y-101674819D01*
X137228095Y-101674819D02*
X137132857Y-101627200D01*
X137132857Y-101627200D02*
X137085238Y-101531961D01*
X137085238Y-101531961D02*
X137085238Y-101436723D01*
X137085238Y-101436723D02*
X137132857Y-101341485D01*
X137132857Y-101341485D02*
X137228095Y-101293866D01*
X137228095Y-101293866D02*
X137466190Y-101293866D01*
X137466190Y-101293866D02*
X137561428Y-101246247D01*
X124208571Y-87914819D02*
X123637143Y-87914819D01*
X123922857Y-87914819D02*
X123922857Y-86914819D01*
X123922857Y-86914819D02*
X123827619Y-87057676D01*
X123827619Y-87057676D02*
X123732381Y-87152914D01*
X123732381Y-87152914D02*
X123637143Y-87200533D01*
X124827619Y-86914819D02*
X124922857Y-86914819D01*
X124922857Y-86914819D02*
X125018095Y-86962438D01*
X125018095Y-86962438D02*
X125065714Y-87010057D01*
X125065714Y-87010057D02*
X125113333Y-87105295D01*
X125113333Y-87105295D02*
X125160952Y-87295771D01*
X125160952Y-87295771D02*
X125160952Y-87533866D01*
X125160952Y-87533866D02*
X125113333Y-87724342D01*
X125113333Y-87724342D02*
X125065714Y-87819580D01*
X125065714Y-87819580D02*
X125018095Y-87867200D01*
X125018095Y-87867200D02*
X124922857Y-87914819D01*
X124922857Y-87914819D02*
X124827619Y-87914819D01*
X124827619Y-87914819D02*
X124732381Y-87867200D01*
X124732381Y-87867200D02*
X124684762Y-87819580D01*
X124684762Y-87819580D02*
X124637143Y-87724342D01*
X124637143Y-87724342D02*
X124589524Y-87533866D01*
X124589524Y-87533866D02*
X124589524Y-87295771D01*
X124589524Y-87295771D02*
X124637143Y-87105295D01*
X124637143Y-87105295D02*
X124684762Y-87010057D01*
X124684762Y-87010057D02*
X124732381Y-86962438D01*
X124732381Y-86962438D02*
X124827619Y-86914819D01*
X126018095Y-87248152D02*
X126018095Y-87914819D01*
X125589524Y-87248152D02*
X125589524Y-87771961D01*
X125589524Y-87771961D02*
X125637143Y-87867200D01*
X125637143Y-87867200D02*
X125732381Y-87914819D01*
X125732381Y-87914819D02*
X125875238Y-87914819D01*
X125875238Y-87914819D02*
X125970476Y-87867200D01*
X125970476Y-87867200D02*
X126018095Y-87819580D01*
X126827619Y-87391009D02*
X126494286Y-87391009D01*
X126494286Y-87914819D02*
X126494286Y-86914819D01*
X126494286Y-86914819D02*
X126970476Y-86914819D01*
X129314819Y-90291428D02*
X129314819Y-90862856D01*
X129314819Y-90577142D02*
X128314819Y-90577142D01*
X128314819Y-90577142D02*
X128457676Y-90672380D01*
X128457676Y-90672380D02*
X128552914Y-90767618D01*
X128552914Y-90767618D02*
X128600533Y-90862856D01*
X129314819Y-89815237D02*
X129314819Y-89624761D01*
X129314819Y-89624761D02*
X129267200Y-89529523D01*
X129267200Y-89529523D02*
X129219580Y-89481904D01*
X129219580Y-89481904D02*
X129076723Y-89386666D01*
X129076723Y-89386666D02*
X128886247Y-89339047D01*
X128886247Y-89339047D02*
X128505295Y-89339047D01*
X128505295Y-89339047D02*
X128410057Y-89386666D01*
X128410057Y-89386666D02*
X128362438Y-89434285D01*
X128362438Y-89434285D02*
X128314819Y-89529523D01*
X128314819Y-89529523D02*
X128314819Y-89719999D01*
X128314819Y-89719999D02*
X128362438Y-89815237D01*
X128362438Y-89815237D02*
X128410057Y-89862856D01*
X128410057Y-89862856D02*
X128505295Y-89910475D01*
X128505295Y-89910475D02*
X128743390Y-89910475D01*
X128743390Y-89910475D02*
X128838628Y-89862856D01*
X128838628Y-89862856D02*
X128886247Y-89815237D01*
X128886247Y-89815237D02*
X128933866Y-89719999D01*
X128933866Y-89719999D02*
X128933866Y-89529523D01*
X128933866Y-89529523D02*
X128886247Y-89434285D01*
X128886247Y-89434285D02*
X128838628Y-89386666D01*
X128838628Y-89386666D02*
X128743390Y-89339047D01*
X128648152Y-88910475D02*
X129648152Y-88910475D01*
X128695771Y-88910475D02*
X128648152Y-88815237D01*
X128648152Y-88815237D02*
X128648152Y-88624761D01*
X128648152Y-88624761D02*
X128695771Y-88529523D01*
X128695771Y-88529523D02*
X128743390Y-88481904D01*
X128743390Y-88481904D02*
X128838628Y-88434285D01*
X128838628Y-88434285D02*
X129124342Y-88434285D01*
X129124342Y-88434285D02*
X129219580Y-88481904D01*
X129219580Y-88481904D02*
X129267200Y-88529523D01*
X129267200Y-88529523D02*
X129314819Y-88624761D01*
X129314819Y-88624761D02*
X129314819Y-88815237D01*
X129314819Y-88815237D02*
X129267200Y-88910475D01*
X128791009Y-87672380D02*
X128791009Y-88005713D01*
X129314819Y-88005713D02*
X128314819Y-88005713D01*
X128314819Y-88005713D02*
X128314819Y-87529523D01*
X138969887Y-84632200D02*
X139112744Y-84679819D01*
X139112744Y-84679819D02*
X139350839Y-84679819D01*
X139350839Y-84679819D02*
X139446077Y-84632200D01*
X139446077Y-84632200D02*
X139493696Y-84584580D01*
X139493696Y-84584580D02*
X139541315Y-84489342D01*
X139541315Y-84489342D02*
X139541315Y-84394104D01*
X139541315Y-84394104D02*
X139493696Y-84298866D01*
X139493696Y-84298866D02*
X139446077Y-84251247D01*
X139446077Y-84251247D02*
X139350839Y-84203628D01*
X139350839Y-84203628D02*
X139160363Y-84156009D01*
X139160363Y-84156009D02*
X139065125Y-84108390D01*
X139065125Y-84108390D02*
X139017506Y-84060771D01*
X139017506Y-84060771D02*
X138969887Y-83965533D01*
X138969887Y-83965533D02*
X138969887Y-83870295D01*
X138969887Y-83870295D02*
X139017506Y-83775057D01*
X139017506Y-83775057D02*
X139065125Y-83727438D01*
X139065125Y-83727438D02*
X139160363Y-83679819D01*
X139160363Y-83679819D02*
X139398458Y-83679819D01*
X139398458Y-83679819D02*
X139541315Y-83727438D01*
X140636553Y-84775057D02*
X140541315Y-84727438D01*
X140541315Y-84727438D02*
X140446077Y-84632200D01*
X140446077Y-84632200D02*
X140303220Y-84489342D01*
X140303220Y-84489342D02*
X140207982Y-84441723D01*
X140207982Y-84441723D02*
X140112744Y-84441723D01*
X140160363Y-84679819D02*
X140065125Y-84632200D01*
X140065125Y-84632200D02*
X139969887Y-84536961D01*
X139969887Y-84536961D02*
X139922268Y-84346485D01*
X139922268Y-84346485D02*
X139922268Y-84013152D01*
X139922268Y-84013152D02*
X139969887Y-83822676D01*
X139969887Y-83822676D02*
X140065125Y-83727438D01*
X140065125Y-83727438D02*
X140160363Y-83679819D01*
X140160363Y-83679819D02*
X140350839Y-83679819D01*
X140350839Y-83679819D02*
X140446077Y-83727438D01*
X140446077Y-83727438D02*
X140541315Y-83822676D01*
X140541315Y-83822676D02*
X140588934Y-84013152D01*
X140588934Y-84013152D02*
X140588934Y-84346485D01*
X140588934Y-84346485D02*
X140541315Y-84536961D01*
X140541315Y-84536961D02*
X140446077Y-84632200D01*
X140446077Y-84632200D02*
X140350839Y-84679819D01*
X140350839Y-84679819D02*
X140160363Y-84679819D01*
X140874649Y-83679819D02*
X141446077Y-83679819D01*
X141160363Y-84679819D02*
X141160363Y-83679819D01*
X140256133Y-80954048D02*
X140256133Y-81715953D01*
X139875180Y-81335000D02*
X140637085Y-81335000D01*
X139929048Y-82558866D02*
X140690953Y-82558866D01*
X140529523Y-79224580D02*
X140481904Y-79272200D01*
X140481904Y-79272200D02*
X140339047Y-79319819D01*
X140339047Y-79319819D02*
X140243809Y-79319819D01*
X140243809Y-79319819D02*
X140100952Y-79272200D01*
X140100952Y-79272200D02*
X140005714Y-79176961D01*
X140005714Y-79176961D02*
X139958095Y-79081723D01*
X139958095Y-79081723D02*
X139910476Y-78891247D01*
X139910476Y-78891247D02*
X139910476Y-78748390D01*
X139910476Y-78748390D02*
X139958095Y-78557914D01*
X139958095Y-78557914D02*
X140005714Y-78462676D01*
X140005714Y-78462676D02*
X140100952Y-78367438D01*
X140100952Y-78367438D02*
X140243809Y-78319819D01*
X140243809Y-78319819D02*
X140339047Y-78319819D01*
X140339047Y-78319819D02*
X140481904Y-78367438D01*
X140481904Y-78367438D02*
X140529523Y-78415057D01*
X140048095Y-80629819D02*
X140048095Y-79629819D01*
X140048095Y-79629819D02*
X140286190Y-79629819D01*
X140286190Y-79629819D02*
X140429047Y-79677438D01*
X140429047Y-79677438D02*
X140524285Y-79772676D01*
X140524285Y-79772676D02*
X140571904Y-79867914D01*
X140571904Y-79867914D02*
X140619523Y-80058390D01*
X140619523Y-80058390D02*
X140619523Y-80201247D01*
X140619523Y-80201247D02*
X140571904Y-80391723D01*
X140571904Y-80391723D02*
X140524285Y-80486961D01*
X140524285Y-80486961D02*
X140429047Y-80582200D01*
X140429047Y-80582200D02*
X140286190Y-80629819D01*
X140286190Y-80629819D02*
X140048095Y-80629819D01*
X129784819Y-122883332D02*
X130784819Y-122549999D01*
X130784819Y-122549999D02*
X129784819Y-122216666D01*
X130784819Y-121883332D02*
X129784819Y-121883332D01*
X129784819Y-121883332D02*
X129784819Y-121645237D01*
X129784819Y-121645237D02*
X129832438Y-121502380D01*
X129832438Y-121502380D02*
X129927676Y-121407142D01*
X129927676Y-121407142D02*
X130022914Y-121359523D01*
X130022914Y-121359523D02*
X130213390Y-121311904D01*
X130213390Y-121311904D02*
X130356247Y-121311904D01*
X130356247Y-121311904D02*
X130546723Y-121359523D01*
X130546723Y-121359523D02*
X130641961Y-121407142D01*
X130641961Y-121407142D02*
X130737200Y-121502380D01*
X130737200Y-121502380D02*
X130784819Y-121645237D01*
X130784819Y-121645237D02*
X130784819Y-121883332D01*
X130689580Y-120311904D02*
X130737200Y-120359523D01*
X130737200Y-120359523D02*
X130784819Y-120502380D01*
X130784819Y-120502380D02*
X130784819Y-120597618D01*
X130784819Y-120597618D02*
X130737200Y-120740475D01*
X130737200Y-120740475D02*
X130641961Y-120835713D01*
X130641961Y-120835713D02*
X130546723Y-120883332D01*
X130546723Y-120883332D02*
X130356247Y-120930951D01*
X130356247Y-120930951D02*
X130213390Y-120930951D01*
X130213390Y-120930951D02*
X130022914Y-120883332D01*
X130022914Y-120883332D02*
X129927676Y-120835713D01*
X129927676Y-120835713D02*
X129832438Y-120740475D01*
X129832438Y-120740475D02*
X129784819Y-120597618D01*
X129784819Y-120597618D02*
X129784819Y-120502380D01*
X129784819Y-120502380D02*
X129832438Y-120359523D01*
X129832438Y-120359523D02*
X129880057Y-120311904D01*
X137079048Y-126563866D02*
X137840953Y-126563866D01*
X137460000Y-126944819D02*
X137460000Y-126182914D01*
X130493866Y-126940951D02*
X130493866Y-126179047D01*
X137592438Y-76484285D02*
X137544819Y-76579523D01*
X137544819Y-76579523D02*
X137544819Y-76722380D01*
X137544819Y-76722380D02*
X137592438Y-76865237D01*
X137592438Y-76865237D02*
X137687676Y-76960475D01*
X137687676Y-76960475D02*
X137782914Y-77008094D01*
X137782914Y-77008094D02*
X137973390Y-77055713D01*
X137973390Y-77055713D02*
X138116247Y-77055713D01*
X138116247Y-77055713D02*
X138306723Y-77008094D01*
X138306723Y-77008094D02*
X138401961Y-76960475D01*
X138401961Y-76960475D02*
X138497200Y-76865237D01*
X138497200Y-76865237D02*
X138544819Y-76722380D01*
X138544819Y-76722380D02*
X138544819Y-76627142D01*
X138544819Y-76627142D02*
X138497200Y-76484285D01*
X138497200Y-76484285D02*
X138449580Y-76436666D01*
X138449580Y-76436666D02*
X138116247Y-76436666D01*
X138116247Y-76436666D02*
X138116247Y-76627142D01*
X138544819Y-76008094D02*
X137544819Y-76008094D01*
X137544819Y-76008094D02*
X137544819Y-75627142D01*
X137544819Y-75627142D02*
X137592438Y-75531904D01*
X137592438Y-75531904D02*
X137640057Y-75484285D01*
X137640057Y-75484285D02*
X137735295Y-75436666D01*
X137735295Y-75436666D02*
X137878152Y-75436666D01*
X137878152Y-75436666D02*
X137973390Y-75484285D01*
X137973390Y-75484285D02*
X138021009Y-75531904D01*
X138021009Y-75531904D02*
X138068628Y-75627142D01*
X138068628Y-75627142D02*
X138068628Y-76008094D01*
X138497200Y-75055713D02*
X138544819Y-74912856D01*
X138544819Y-74912856D02*
X138544819Y-74674761D01*
X138544819Y-74674761D02*
X138497200Y-74579523D01*
X138497200Y-74579523D02*
X138449580Y-74531904D01*
X138449580Y-74531904D02*
X138354342Y-74484285D01*
X138354342Y-74484285D02*
X138259104Y-74484285D01*
X138259104Y-74484285D02*
X138163866Y-74531904D01*
X138163866Y-74531904D02*
X138116247Y-74579523D01*
X138116247Y-74579523D02*
X138068628Y-74674761D01*
X138068628Y-74674761D02*
X138021009Y-74865237D01*
X138021009Y-74865237D02*
X137973390Y-74960475D01*
X137973390Y-74960475D02*
X137925771Y-75008094D01*
X137925771Y-75008094D02*
X137830533Y-75055713D01*
X137830533Y-75055713D02*
X137735295Y-75055713D01*
X137735295Y-75055713D02*
X137640057Y-75008094D01*
X137640057Y-75008094D02*
X137592438Y-74960475D01*
X137592438Y-74960475D02*
X137544819Y-74865237D01*
X137544819Y-74865237D02*
X137544819Y-74627142D01*
X137544819Y-74627142D02*
X137592438Y-74484285D01*
X134816667Y-81804819D02*
X135150000Y-82804819D01*
X135150000Y-82804819D02*
X135483333Y-81804819D01*
X136388095Y-82709580D02*
X136340476Y-82757200D01*
X136340476Y-82757200D02*
X136197619Y-82804819D01*
X136197619Y-82804819D02*
X136102381Y-82804819D01*
X136102381Y-82804819D02*
X135959524Y-82757200D01*
X135959524Y-82757200D02*
X135864286Y-82661961D01*
X135864286Y-82661961D02*
X135816667Y-82566723D01*
X135816667Y-82566723D02*
X135769048Y-82376247D01*
X135769048Y-82376247D02*
X135769048Y-82233390D01*
X135769048Y-82233390D02*
X135816667Y-82042914D01*
X135816667Y-82042914D02*
X135864286Y-81947676D01*
X135864286Y-81947676D02*
X135959524Y-81852438D01*
X135959524Y-81852438D02*
X136102381Y-81804819D01*
X136102381Y-81804819D02*
X136197619Y-81804819D01*
X136197619Y-81804819D02*
X136340476Y-81852438D01*
X136340476Y-81852438D02*
X136388095Y-81900057D01*
X137388095Y-82709580D02*
X137340476Y-82757200D01*
X137340476Y-82757200D02*
X137197619Y-82804819D01*
X137197619Y-82804819D02*
X137102381Y-82804819D01*
X137102381Y-82804819D02*
X136959524Y-82757200D01*
X136959524Y-82757200D02*
X136864286Y-82661961D01*
X136864286Y-82661961D02*
X136816667Y-82566723D01*
X136816667Y-82566723D02*
X136769048Y-82376247D01*
X136769048Y-82376247D02*
X136769048Y-82233390D01*
X136769048Y-82233390D02*
X136816667Y-82042914D01*
X136816667Y-82042914D02*
X136864286Y-81947676D01*
X136864286Y-81947676D02*
X136959524Y-81852438D01*
X136959524Y-81852438D02*
X137102381Y-81804819D01*
X137102381Y-81804819D02*
X137197619Y-81804819D01*
X137197619Y-81804819D02*
X137340476Y-81852438D01*
X137340476Y-81852438D02*
X137388095Y-81900057D01*
X132788095Y-85852438D02*
X132692857Y-85804819D01*
X132692857Y-85804819D02*
X132550000Y-85804819D01*
X132550000Y-85804819D02*
X132407143Y-85852438D01*
X132407143Y-85852438D02*
X132311905Y-85947676D01*
X132311905Y-85947676D02*
X132264286Y-86042914D01*
X132264286Y-86042914D02*
X132216667Y-86233390D01*
X132216667Y-86233390D02*
X132216667Y-86376247D01*
X132216667Y-86376247D02*
X132264286Y-86566723D01*
X132264286Y-86566723D02*
X132311905Y-86661961D01*
X132311905Y-86661961D02*
X132407143Y-86757200D01*
X132407143Y-86757200D02*
X132550000Y-86804819D01*
X132550000Y-86804819D02*
X132645238Y-86804819D01*
X132645238Y-86804819D02*
X132788095Y-86757200D01*
X132788095Y-86757200D02*
X132835714Y-86709580D01*
X132835714Y-86709580D02*
X132835714Y-86376247D01*
X132835714Y-86376247D02*
X132645238Y-86376247D01*
X133264286Y-86804819D02*
X133264286Y-85804819D01*
X133264286Y-85804819D02*
X133835714Y-86804819D01*
X133835714Y-86804819D02*
X133835714Y-85804819D01*
X134311905Y-86804819D02*
X134311905Y-85804819D01*
X134311905Y-85804819D02*
X134550000Y-85804819D01*
X134550000Y-85804819D02*
X134692857Y-85852438D01*
X134692857Y-85852438D02*
X134788095Y-85947676D01*
X134788095Y-85947676D02*
X134835714Y-86042914D01*
X134835714Y-86042914D02*
X134883333Y-86233390D01*
X134883333Y-86233390D02*
X134883333Y-86376247D01*
X134883333Y-86376247D02*
X134835714Y-86566723D01*
X134835714Y-86566723D02*
X134788095Y-86661961D01*
X134788095Y-86661961D02*
X134692857Y-86757200D01*
X134692857Y-86757200D02*
X134550000Y-86804819D01*
X134550000Y-86804819D02*
X134311905Y-86804819D01*
X130288095Y-81794819D02*
X130859523Y-81794819D01*
X130573809Y-82794819D02*
X130573809Y-81794819D01*
X131097619Y-81794819D02*
X131764285Y-82794819D01*
X131764285Y-81794819D02*
X131097619Y-82794819D01*
X128403333Y-86854819D02*
X128070000Y-86378628D01*
X127831905Y-86854819D02*
X127831905Y-85854819D01*
X127831905Y-85854819D02*
X128212857Y-85854819D01*
X128212857Y-85854819D02*
X128308095Y-85902438D01*
X128308095Y-85902438D02*
X128355714Y-85950057D01*
X128355714Y-85950057D02*
X128403333Y-86045295D01*
X128403333Y-86045295D02*
X128403333Y-86188152D01*
X128403333Y-86188152D02*
X128355714Y-86283390D01*
X128355714Y-86283390D02*
X128308095Y-86331009D01*
X128308095Y-86331009D02*
X128212857Y-86378628D01*
X128212857Y-86378628D02*
X127831905Y-86378628D01*
X128736667Y-85854819D02*
X129403333Y-86854819D01*
X129403333Y-85854819D02*
X128736667Y-86854819D01*
X124811905Y-82804819D02*
X124811905Y-81804819D01*
X124811905Y-81804819D02*
X125192857Y-81804819D01*
X125192857Y-81804819D02*
X125288095Y-81852438D01*
X125288095Y-81852438D02*
X125335714Y-81900057D01*
X125335714Y-81900057D02*
X125383333Y-81995295D01*
X125383333Y-81995295D02*
X125383333Y-82138152D01*
X125383333Y-82138152D02*
X125335714Y-82233390D01*
X125335714Y-82233390D02*
X125288095Y-82281009D01*
X125288095Y-82281009D02*
X125192857Y-82328628D01*
X125192857Y-82328628D02*
X124811905Y-82328628D01*
X125811905Y-82804819D02*
X125811905Y-81804819D01*
X125811905Y-81804819D02*
X126192857Y-81804819D01*
X126192857Y-81804819D02*
X126288095Y-81852438D01*
X126288095Y-81852438D02*
X126335714Y-81900057D01*
X126335714Y-81900057D02*
X126383333Y-81995295D01*
X126383333Y-81995295D02*
X126383333Y-82138152D01*
X126383333Y-82138152D02*
X126335714Y-82233390D01*
X126335714Y-82233390D02*
X126288095Y-82281009D01*
X126288095Y-82281009D02*
X126192857Y-82328628D01*
X126192857Y-82328628D02*
X125811905Y-82328628D01*
X126764286Y-82757200D02*
X126907143Y-82804819D01*
X126907143Y-82804819D02*
X127145238Y-82804819D01*
X127145238Y-82804819D02*
X127240476Y-82757200D01*
X127240476Y-82757200D02*
X127288095Y-82709580D01*
X127288095Y-82709580D02*
X127335714Y-82614342D01*
X127335714Y-82614342D02*
X127335714Y-82519104D01*
X127335714Y-82519104D02*
X127288095Y-82423866D01*
X127288095Y-82423866D02*
X127240476Y-82376247D01*
X127240476Y-82376247D02*
X127145238Y-82328628D01*
X127145238Y-82328628D02*
X126954762Y-82281009D01*
X126954762Y-82281009D02*
X126859524Y-82233390D01*
X126859524Y-82233390D02*
X126811905Y-82185771D01*
X126811905Y-82185771D02*
X126764286Y-82090533D01*
X126764286Y-82090533D02*
X126764286Y-81995295D01*
X126764286Y-81995295D02*
X126811905Y-81900057D01*
X126811905Y-81900057D02*
X126859524Y-81852438D01*
X126859524Y-81852438D02*
X126954762Y-81804819D01*
X126954762Y-81804819D02*
X127192857Y-81804819D01*
X127192857Y-81804819D02*
X127335714Y-81852438D01*
D13*
%TO.C,Y1*%
X130780000Y-89960000D02*
X130780000Y-98360000D01*
X130780000Y-98360000D02*
X134180000Y-98360000D01*
X131530000Y-99510000D02*
X131530000Y-99960000D01*
X131935000Y-98360000D02*
X131530000Y-99510000D01*
X133025000Y-98360000D02*
X133430000Y-99510000D01*
X133430000Y-99510000D02*
X133430000Y-99960000D01*
X134180000Y-89960000D02*
X130780000Y-89960000D01*
X134180000Y-98360000D02*
X134180000Y-89960000D01*
%TO.C,C3*%
X125130000Y-95910000D02*
X125130000Y-100450000D01*
X125145000Y-95910000D02*
X125130000Y-95910000D01*
X125145000Y-100450000D02*
X125130000Y-100450000D01*
X127270000Y-95910000D02*
X127255000Y-95910000D01*
X127270000Y-95910000D02*
X127270000Y-100450000D01*
X127270000Y-100450000D02*
X127255000Y-100450000D01*
%TO.C,C1*%
X135070000Y-92370000D02*
X135085000Y-92370000D01*
X135070000Y-96910000D02*
X135070000Y-92370000D01*
X135070000Y-96910000D02*
X135085000Y-96910000D01*
X137195000Y-92370000D02*
X137210000Y-92370000D01*
X137195000Y-96910000D02*
X137210000Y-96910000D01*
X137210000Y-96910000D02*
X137210000Y-92370000D01*
D14*
%TO.C,U2*%
X123128750Y-102430000D02*
X139191250Y-102430000D01*
X123128750Y-102975000D02*
X123128750Y-102430000D01*
X123128750Y-119430000D02*
X123128750Y-118750000D01*
X139191250Y-102430000D02*
X139191250Y-103110000D01*
X139191250Y-119430000D02*
X123128750Y-119430000D01*
X139191250Y-119430000D02*
X139191250Y-118750000D01*
D15*
X122770000Y-102690000D02*
G75*
G02*
X122570000Y-102690000I-100000J0D01*
G01*
X122570000Y-102690000D02*
G75*
G02*
X122770000Y-102690000I100000J0D01*
G01*
D13*
%TO.C,C4*%
X127340000Y-90280000D02*
G75*
G02*
X123100000Y-90280000I-2120000J0D01*
G01*
X123100000Y-90280000D02*
G75*
G02*
X127340000Y-90280000I2120000J0D01*
G01*
%TO.C,AE1*%
X124380000Y-123677500D02*
X125490000Y-123677500D01*
X124380000Y-126927500D02*
X125490000Y-126927500D01*
X126045000Y-121247500D02*
X126295000Y-121747500D01*
X126295000Y-121747500D02*
X126545000Y-121247500D01*
X126545000Y-121247500D02*
X126045000Y-121247500D01*
X127170000Y-123677500D02*
X128280000Y-123677500D01*
X127170000Y-126927500D02*
X128280000Y-126927500D01*
%TO.C,C2*%
X127780000Y-92380000D02*
X127795000Y-92380000D01*
X127780000Y-96920000D02*
X127780000Y-92380000D01*
X127780000Y-96920000D02*
X127795000Y-96920000D01*
X129905000Y-92380000D02*
X129920000Y-92380000D01*
X129905000Y-96920000D02*
X129920000Y-96920000D01*
X129920000Y-96920000D02*
X129920000Y-92380000D01*
%TO.C,J2*%
X131040000Y-127370000D02*
X131040000Y-120630000D01*
X136820000Y-120630000D02*
X131040000Y-120630000D01*
X136820000Y-121150000D02*
X131040000Y-121150000D01*
X136820000Y-126250000D02*
X131040000Y-126250000D01*
X136820000Y-127370000D02*
X131040000Y-127370000D01*
X136820000Y-127370000D02*
X136820000Y-120630000D01*
X137060000Y-120390000D02*
X136660000Y-120390000D01*
X137060000Y-121030000D02*
X137060000Y-120390000D01*
%TO.C,J9*%
X119730000Y-122795000D02*
X119730000Y-117655000D01*
X122390000Y-117655000D02*
X119730000Y-117655000D01*
X122390000Y-122795000D02*
X119730000Y-122795000D01*
X122390000Y-122795000D02*
X122390000Y-117655000D01*
%TO.C,A1*%
X119590000Y-72205000D02*
X119590000Y-124910002D01*
X140020000Y-69555000D02*
X122240000Y-69555000D01*
X140020000Y-127560002D02*
X122240000Y-127560002D01*
X142670000Y-72205000D02*
X142670000Y-124910002D01*
X119590000Y-72205000D02*
G75*
G02*
X122240000Y-69555000I2650003J-3D01*
G01*
X122240000Y-127560002D02*
G75*
G02*
X119590000Y-124910002I-4J2649996D01*
G01*
X140020000Y-69555000D02*
G75*
G02*
X142670000Y-72205000I0J-2650000D01*
G01*
X140020000Y-69555000D02*
G75*
G02*
X142670000Y-72205000I0J-2650000D01*
G01*
X142670000Y-124910002D02*
G75*
G02*
X140020000Y-127560000I-2650000J2D01*
G01*
%TO.C,J1*%
X124697000Y-82960000D02*
X124697000Y-85620000D01*
X124697000Y-82960000D02*
X134917000Y-82960000D01*
X124697000Y-85620000D02*
X134917000Y-85620000D01*
X134917000Y-82960000D02*
X134917000Y-85620000D01*
X137517000Y-84290000D02*
X137517000Y-85620000D01*
X137517000Y-85620000D02*
X136187000Y-85620000D01*
%TD*%
M02*
