M48
; DRILL file {KiCad 8.0.4} date 2024-08-28T09:49:52+0900
; FORMAT={-:-/ absolute / inch / decimal}
; #@! TF.CreationDate,2024-08-28T09:49:52+09:00
; #@! TF.GenerationSoftware,Kicad,Pcbnew,8.0.4
; #@! TF.FileFunction,Plated,1,2,PTH
FMAT,2
INCH
; #@! TA.AperFunction,Plated,PTH,ViaDrill
T1C0.0118
; #@! TA.AperFunction,Plated,PTH,ComponentDrill
T2C0.0197
; #@! TA.AperFunction,Plated,PTH,ComponentDrill
T3C0.0236
; #@! TA.AperFunction,Plated,PTH,ComponentDrill
T4C0.0256
; #@! TA.AperFunction,Plated,PTH,ComponentDrill
T5C0.0295
; #@! TA.AperFunction,Plated,PTH,ComponentDrill
T6C0.0315
; #@! TA.AperFunction,Plated,PTH,ComponentDrill
T7C0.0394
; #@! TA.AperFunction,Plated,PTH,ComponentDrill
T8C0.0433
%
G90
G05
T1
X4.8004Y-4.952
X4.8142Y-3.2654
X4.8232Y-3.3744
X4.848Y-3.6362
X4.8791Y-3.8906
X4.9087Y-4.8531
X4.9331Y-4.7783
X4.9602Y-4.7016
X4.9689Y-4.0461
X4.9823Y-3.3902
X4.9984Y-4.0173
X4.9988Y-4.2862
X5.0169Y-4.6409
X5.0185Y-4.7815
X5.0252Y-3.9217
X5.026Y-3.4535
X5.0382Y-4.8539
X5.0433Y-4.3776
X5.048Y-3.7535
X5.0524Y-4.722
X5.0823Y-4.3276
X5.0835Y-3.8862
X5.0909Y-4.6055
X5.1161Y-3.3878
X5.1177Y-4.6866
X5.1343Y-4.0157
X5.1343Y-4.2386
X5.1469Y-4.4681
X5.176Y-3.8252
X5.1768Y-4.9276
X5.1772Y-4.6008
X5.178Y-4.2894
X5.2Y-4.685
X5.2157Y-3.7772
X5.2472Y-4.8106
X5.2528Y-4.2067
X5.2535Y-3.824
X5.2594Y-4.6008
X5.261Y-4.2618
X5.2669Y-4.4346
X5.2787Y-4.6854
X5.3031Y-3.8886
X5.3067Y-4.0724
X5.3138Y-4.1343
X5.3146Y-4.4862
X5.3327Y-4.9858
X5.3409Y-4.6004
X5.35Y-4.6854
X5.3583Y-4.1705
X5.3587Y-4.0335
X5.3709Y-3.974
X5.3811Y-3.7154
X5.3886Y-3.4661
X5.3965Y-3.5598
X5.439Y-3.7957
X5.5417Y-4.976
T2
X5.1783Y-3.963
X5.2531Y-3.963
T3
X4.9299Y-3.5248
X4.9299Y-3.5839
T4
X5.4815Y-3.1016
X5.4815Y-3.1516
X5.4815Y-3.2016
X5.4815Y-3.2516
X5.5646Y-3.1018
X5.5646Y-3.1518
X5.5646Y-3.2018
X5.5646Y-3.2518
T5
X4.887Y-4.0917
T6
X4.7626Y-3.0177
X4.7626Y-3.1177
X4.7626Y-3.2177
X4.7626Y-3.3177
X4.7626Y-3.4177
X4.7626Y-3.5177
X4.7626Y-3.6177
X4.7626Y-3.7177
X4.7626Y-3.8177
X4.7626Y-3.9177
X4.7626Y-4.0177
X4.7626Y-4.1177
X4.7626Y-4.2177
X4.7626Y-4.3177
X4.7626Y-4.4177
X4.7626Y-4.5177
X4.887Y-4.1705
X4.887Y-4.2492
X4.887Y-4.328
X4.887Y-4.4067
X4.887Y-4.4854
X4.887Y-4.5642
X4.887Y-4.6429
X4.9685Y-3.7669
X4.9685Y-3.9638
X5.0728Y-3.628
X5.0728Y-3.8248
X5.3598Y-3.6276
X5.3598Y-3.8244
X5.4406Y-4.0917
X5.4406Y-4.1705
X5.4406Y-4.2492
X5.4406Y-4.328
X5.4406Y-4.4067
X5.4406Y-4.4854
X5.4406Y-4.5642
X5.4406Y-4.6429
X5.5626Y-3.4177
X5.5626Y-3.5177
X5.5626Y-3.6177
X5.5626Y-3.7177
X5.5626Y-3.8177
X5.5626Y-3.9177
X5.5626Y-4.0177
X5.5626Y-4.1177
X5.5626Y-4.2177
X5.5626Y-4.3177
X5.5626Y-4.4177
X5.5626Y-4.5177
X5.5626Y-4.6177
X5.5626Y-4.7177
X5.5626Y-4.8177
X5.5626Y-4.9177
T7
X4.7661Y-4.6844
X4.7661Y-4.7844
X4.7661Y-4.8844
X4.8622Y-3.0173
X4.8622Y-3.1173
X4.8622Y-3.2173
X4.8622Y-3.3173
X4.8622Y-3.7173
X4.8622Y-3.8173
X4.8622Y-3.9673
X4.9617Y-3.3185
X4.9736Y-4.833
X5.0617Y-3.3185
X5.1617Y-3.3185
X5.2617Y-3.3185
X5.3617Y-3.3185
X5.4618Y-3.8693
X5.4618Y-3.9693
X5.4622Y-3.4173
X5.4622Y-3.5173
X5.4622Y-3.6173
X5.4622Y-3.7173
X5.4622Y-4.7665
X5.4622Y-4.8665
X5.5102Y-3.011
T8
X5.2228Y-4.8819
X5.3228Y-4.8819
M30
