%TF.GenerationSoftware,KiCad,Pcbnew,8.0.4*%
%TF.CreationDate,2024-08-28T09:49:03+09:00*%
%TF.ProjectId,powerfeather-lora-gps-reference,706f7765-7266-4656-9174-6865722d6c6f,rev?*%
%TF.SameCoordinates,Original*%
%TF.FileFunction,Soldermask,Top*%
%TF.FilePolarity,Negative*%
%FSLAX46Y46*%
G04 Gerber Fmt 4.6, Leading zero omitted, Abs format (unit mm)*
G04 Created by KiCad (PCBNEW 8.0.4) date 2024-08-28 09:49:03*
%MOMM*%
%LPD*%
G01*
G04 APERTURE LIST*
G04 Aperture macros list*
%AMRoundRect*
0 Rectangle with rounded corners*
0 $1 Rounding radius*
0 $2 $3 $4 $5 $6 $7 $8 $9 X,Y pos of 4 corners*
0 Add a 4 corners polygon primitive as box body*
4,1,4,$2,$3,$4,$5,$6,$7,$8,$9,$2,$3,0*
0 Add four circle primitives for the rounded corners*
1,1,$1+$1,$2,$3*
1,1,$1+$1,$4,$5*
1,1,$1+$1,$6,$7*
1,1,$1+$1,$8,$9*
0 Add four rect primitives between the rounded corners*
20,1,$1+$1,$2,$3,$4,$5,0*
20,1,$1+$1,$4,$5,$6,$7,0*
20,1,$1+$1,$6,$7,$8,$9,0*
20,1,$1+$1,$8,$9,$2,$3,0*%
%AMFreePoly0*
4,1,17,1.497636,0.638536,1.499100,0.635000,1.499100,-0.635000,1.497636,-0.638536,1.494100,-0.640000,-0.041700,-0.640000,-0.045236,-0.638536,-0.046700,-0.635000,-0.046700,-0.600000,-1.250000,-0.600000,-1.250000,0.600000,-0.046700,0.600000,-0.046700,0.635000,-0.045236,0.638536,-0.041700,0.640000,1.494100,0.640000,1.497636,0.638536,1.497636,0.638536,$1*%
G04 Aperture macros list end*
%ADD10C,0.010000*%
%ADD11C,1.000000*%
%ADD12C,1.700000*%
%ADD13O,1.700000X1.700000*%
%ADD14C,1.600000*%
%ADD15R,1.700000X1.700000*%
%ADD16FreePoly0,0.000000*%
%ADD17RoundRect,0.102000X-1.250000X-0.600000X1.250000X-0.600000X1.250000X0.600000X-1.250000X0.600000X0*%
%ADD18C,1.200000*%
%ADD19C,1.800000*%
%ADD20R,1.000000X1.000000*%
%ADD21RoundRect,0.254921X-0.392579X-0.925079X0.392579X-0.925079X0.392579X0.925079X-0.392579X0.925079X0*%
%ADD22RoundRect,0.250000X-0.425000X-1.600000X0.425000X-1.600000X0.425000X1.600000X-0.425000X1.600000X0*%
%ADD23R,1.440000X2.200000*%
%ADD24R,1.360000X2.200000*%
%ADD25O,1.000000X1.000000*%
%ADD26R,2.100000X2.100000*%
%ADD27C,2.100000*%
%ADD28C,3.200000*%
%ADD29R,1.600000X1.600000*%
G04 APERTURE END LIST*
D10*
%TO.C,U2*%
X125522000Y-104665000D02*
X123336200Y-104665000D01*
X123336200Y-104660000D01*
X122610000Y-104660000D01*
X122610000Y-103200000D01*
X123336200Y-103200000D01*
X123336200Y-103195000D01*
X125522000Y-103195000D01*
X125522000Y-104665000D01*
G36*
X125522000Y-104665000D02*
G01*
X123336200Y-104665000D01*
X123336200Y-104660000D01*
X122610000Y-104660000D01*
X122610000Y-103200000D01*
X123336200Y-103200000D01*
X123336200Y-103195000D01*
X125522000Y-103195000D01*
X125522000Y-104665000D01*
G37*
%TD*%
D11*
%TO.C,Y1*%
X133430000Y-100660000D03*
X131530000Y-100660000D03*
%TD*%
D12*
%TO.C,J5*%
X138730000Y-98280000D03*
D13*
X138730000Y-100820000D03*
%TD*%
D12*
%TO.C,J4*%
X138740000Y-121070000D03*
D13*
X138740000Y-123610000D03*
%TD*%
D14*
%TO.C,C3*%
X126200000Y-95680000D03*
X126200000Y-100680000D03*
%TD*%
D15*
%TO.C,J8*%
X123500000Y-94420000D03*
D13*
X123500000Y-96960000D03*
X123500000Y-100770000D03*
%TD*%
D12*
%TO.C,J6*%
X138740000Y-86800000D03*
D13*
X138740000Y-89340000D03*
X138740000Y-91880000D03*
X138740000Y-94420000D03*
%TD*%
D14*
%TO.C,C1*%
X136140000Y-97140000D03*
X136140000Y-92140000D03*
%TD*%
D16*
%TO.C,U2*%
X123930000Y-103930000D03*
D17*
X123930000Y-105930000D03*
X123930000Y-107930000D03*
X123930000Y-109930000D03*
X123930000Y-111930000D03*
X123930000Y-113930000D03*
X123930000Y-115930000D03*
X123930000Y-117930000D03*
X138390000Y-117930000D03*
X138390000Y-115930000D03*
X138390000Y-113930000D03*
X138390000Y-111930000D03*
X138390000Y-109930000D03*
X138390000Y-107930000D03*
X138390000Y-105930000D03*
X138390000Y-103930000D03*
%TD*%
D18*
%TO.C,C4*%
X125220000Y-91030000D03*
X125220000Y-89530000D03*
%TD*%
D19*
%TO.C,AE1*%
X126330000Y-122757500D03*
D20*
X126310000Y-123987500D03*
D21*
X126317500Y-124967500D03*
D22*
X129155000Y-125137500D03*
X123505000Y-125137500D03*
D23*
X128220000Y-125487500D03*
D24*
X124460000Y-125487500D03*
%TD*%
D14*
%TO.C,C2*%
X128850000Y-97150000D03*
X128850000Y-92150000D03*
%TD*%
D20*
%TO.C,J7*%
X141340000Y-78785000D03*
D25*
X141340000Y-80055000D03*
X141340000Y-81325000D03*
X141340000Y-82595000D03*
%TD*%
D12*
%TO.C,J10*%
X139960000Y-76480000D03*
%TD*%
D20*
%TO.C,J3*%
X139230000Y-78780000D03*
D25*
X139230000Y-80050000D03*
X139230000Y-81320000D03*
X139230000Y-82590000D03*
%TD*%
D12*
%TO.C,J11*%
X123500000Y-76640000D03*
D13*
X123500000Y-79180000D03*
X123500000Y-81720000D03*
X123500000Y-84260000D03*
%TD*%
D26*
%TO.C,J2*%
X135200000Y-124000000D03*
D27*
X132660000Y-124000000D03*
%TD*%
D15*
%TO.C,J9*%
X121060000Y-124065000D03*
D13*
X121060000Y-121525000D03*
X121060000Y-118985000D03*
%TD*%
D28*
%TO.C,A1*%
X122240000Y-72840000D03*
X140020000Y-72840000D03*
D29*
X120970000Y-76650000D03*
D14*
X120970000Y-79190000D03*
X120970000Y-81730000D03*
X120970000Y-84270000D03*
X120970000Y-86810000D03*
X120970000Y-89350000D03*
X120970000Y-91890000D03*
X120970000Y-94430000D03*
X120970000Y-96970000D03*
X120970000Y-99510000D03*
X120970000Y-102050000D03*
X120970000Y-104590000D03*
X120970000Y-107130000D03*
X120970000Y-109670000D03*
X120970000Y-112210000D03*
X120970000Y-114750000D03*
X141290000Y-114750000D03*
X141290000Y-112210000D03*
X141290000Y-109670000D03*
X141290000Y-107130000D03*
X141290000Y-104590000D03*
X141290000Y-102050000D03*
X141290000Y-99510000D03*
X141290000Y-96970000D03*
X141290000Y-94430000D03*
X141290000Y-91890000D03*
X141290000Y-89350000D03*
X141290000Y-86810000D03*
X141290000Y-124910000D03*
X141290000Y-122370000D03*
X141290000Y-119830000D03*
X141290000Y-117290000D03*
%TD*%
D15*
%TO.C,J1*%
X136187000Y-84290000D03*
D13*
X133647000Y-84290000D03*
X131107000Y-84290000D03*
X128567000Y-84290000D03*
X126027000Y-84290000D03*
%TD*%
M02*
