%TF.GenerationSoftware,KiCad,Pcbnew,8.0.4*%
%TF.CreationDate,2024-08-28T09:49:03+09:00*%
%TF.ProjectId,powerfeather-lora-gps-reference,706f7765-7266-4656-9174-6865722d6c6f,rev?*%
%TF.SameCoordinates,Original*%
%TF.FileFunction,Copper,L1,Top*%
%TF.FilePolarity,Positive*%
%FSLAX46Y46*%
G04 Gerber Fmt 4.6, Leading zero omitted, Abs format (unit mm)*
G04 Created by KiCad (PCBNEW 8.0.4) date 2024-08-28 09:49:03*
%MOMM*%
%LPD*%
G01*
G04 APERTURE LIST*
G04 Aperture macros list*
%AMRoundRect*
0 Rectangle with rounded corners*
0 $1 Rounding radius*
0 $2 $3 $4 $5 $6 $7 $8 $9 X,Y pos of 4 corners*
0 Add a 4 corners polygon primitive as box body*
4,1,4,$2,$3,$4,$5,$6,$7,$8,$9,$2,$3,0*
0 Add four circle primitives for the rounded corners*
1,1,$1+$1,$2,$3*
1,1,$1+$1,$4,$5*
1,1,$1+$1,$6,$7*
1,1,$1+$1,$8,$9*
0 Add four rect primitives between the rounded corners*
20,1,$1+$1,$2,$3,$4,$5,0*
20,1,$1+$1,$4,$5,$6,$7,0*
20,1,$1+$1,$6,$7,$8,$9,0*
20,1,$1+$1,$8,$9,$2,$3,0*%
%AMFreePoly0*
4,1,17,1.497636,0.638536,1.499100,0.635000,1.499100,-0.635000,1.497636,-0.638536,1.494100,-0.640000,-0.041700,-0.640000,-0.045236,-0.638536,-0.046700,-0.635000,-0.046700,-0.600000,-1.250000,-0.600000,-1.250000,0.600000,-0.046700,0.600000,-0.046700,0.635000,-0.045236,0.638536,-0.041700,0.640000,1.494100,0.640000,1.497636,0.638536,1.497636,0.638536,$1*%
G04 Aperture macros list end*
%TA.AperFunction,ComponentPad*%
%ADD10C,1.000000*%
%TD*%
%TA.AperFunction,ComponentPad*%
%ADD11C,1.700000*%
%TD*%
%TA.AperFunction,ComponentPad*%
%ADD12O,1.700000X1.700000*%
%TD*%
%TA.AperFunction,ComponentPad*%
%ADD13C,1.600000*%
%TD*%
%TA.AperFunction,ComponentPad*%
%ADD14R,1.700000X1.700000*%
%TD*%
%TA.AperFunction,ComponentPad*%
%ADD15FreePoly0,0.000000*%
%TD*%
%TA.AperFunction,ComponentPad*%
%ADD16R,2.500000X1.200000*%
%TD*%
%TA.AperFunction,ComponentPad*%
%ADD17C,1.200000*%
%TD*%
%TA.AperFunction,ComponentPad*%
%ADD18C,1.800000*%
%TD*%
%TA.AperFunction,SMDPad,CuDef*%
%ADD19R,1.000000X1.000000*%
%TD*%
%TA.AperFunction,SMDPad,CuDef*%
%ADD20RoundRect,0.254921X-0.392579X-0.925079X0.392579X-0.925079X0.392579X0.925079X-0.392579X0.925079X0*%
%TD*%
%TA.AperFunction,SMDPad,CuDef*%
%ADD21RoundRect,0.250000X-0.425000X-1.600000X0.425000X-1.600000X0.425000X1.600000X-0.425000X1.600000X0*%
%TD*%
%TA.AperFunction,SMDPad,CuDef*%
%ADD22R,1.440000X2.200000*%
%TD*%
%TA.AperFunction,SMDPad,CuDef*%
%ADD23R,1.360000X2.200000*%
%TD*%
%TA.AperFunction,ComponentPad*%
%ADD24R,1.000000X1.000000*%
%TD*%
%TA.AperFunction,ComponentPad*%
%ADD25O,1.000000X1.000000*%
%TD*%
%TA.AperFunction,ComponentPad*%
%ADD26R,2.100000X2.100000*%
%TD*%
%TA.AperFunction,ComponentPad*%
%ADD27C,2.100000*%
%TD*%
%TA.AperFunction,WasherPad*%
%ADD28C,3.200000*%
%TD*%
%TA.AperFunction,ComponentPad*%
%ADD29R,1.600000X1.600000*%
%TD*%
%TA.AperFunction,ViaPad*%
%ADD30C,0.600000*%
%TD*%
%TA.AperFunction,Conductor*%
%ADD31C,0.200000*%
%TD*%
%TA.AperFunction,Conductor*%
%ADD32C,0.254000*%
%TD*%
%TA.AperFunction,Conductor*%
%ADD33C,1.270000*%
%TD*%
%TA.AperFunction,Conductor*%
%ADD34C,0.508000*%
%TD*%
G04 APERTURE END LIST*
D10*
%TO.P,Y1,1,1*%
%TO.N,Net-(A1-D6)*%
X133430000Y-100660000D03*
%TO.P,Y1,2,2*%
%TO.N,Net-(A1-D5)*%
X131530000Y-100660000D03*
%TD*%
D11*
%TO.P,J5,1,Pin_1*%
%TO.N,/D11*%
X138730000Y-98280000D03*
D12*
%TO.P,J5,2,Pin_2*%
%TO.N,/SCL*%
X138730000Y-100820000D03*
%TD*%
D11*
%TO.P,J4,1,Pin_1*%
%TO.N,/SDA*%
X138740000Y-121070000D03*
D12*
%TO.P,J4,2,Pin_2*%
%TO.N,/D7*%
X138740000Y-123610000D03*
%TD*%
D13*
%TO.P,C3,1*%
%TO.N,+3.3VP*%
X126200000Y-95680000D03*
%TO.P,C3,2*%
%TO.N,GND*%
X126200000Y-100680000D03*
%TD*%
D14*
%TO.P,J8,1,Pin_1*%
%TO.N,/A3*%
X123500000Y-94420000D03*
D12*
%TO.P,J8,2,Pin_2*%
%TO.N,/A4*%
X123500000Y-96960000D03*
%TO.P,J8,3,Pin_3*%
%TO.N,/RX*%
X123500000Y-100770000D03*
%TD*%
D11*
%TO.P,J6,1,Pin_1*%
%TO.N,+BATT*%
X138740000Y-86800000D03*
D12*
%TO.P,J6,2,Pin_2*%
%TO.N,/EN*%
X138740000Y-89340000D03*
%TO.P,J6,3,Pin_3*%
%TO.N,VS*%
X138740000Y-91880000D03*
%TO.P,J6,4,Pin_4*%
%TO.N,/D13*%
X138740000Y-94420000D03*
%TD*%
D13*
%TO.P,C1,1*%
%TO.N,Net-(A1-D6)*%
X136140000Y-97140000D03*
%TO.P,C1,2*%
%TO.N,GND*%
X136140000Y-92140000D03*
%TD*%
D15*
%TO.P,U2,1,GND*%
%TO.N,GND*%
X123930000Y-103930000D03*
D16*
%TO.P,U2,2,MISO*%
%TO.N,/LORA_MISO*%
X123930000Y-105930000D03*
%TO.P,U2,3,MOSI*%
%TO.N,/LORA_MOSI*%
X123930000Y-107930000D03*
%TO.P,U2,4,SCK*%
%TO.N,/LORA_SCK*%
X123930000Y-109930000D03*
%TO.P,U2,5,NSS*%
%TO.N,/LORA_CS*%
X123930000Y-111930000D03*
%TO.P,U2,6,RESET*%
%TO.N,/LORA_RST*%
X123930000Y-113930000D03*
%TO.P,U2,7,NC*%
%TO.N,unconnected-(U2-NC-Pad7)*%
X123930000Y-115930000D03*
%TO.P,U2,8,GND*%
%TO.N,GND*%
X123930000Y-117930000D03*
%TO.P,U2,9,ANT*%
%TO.N,Net-(AE1-A)*%
X138390000Y-117930000D03*
%TO.P,U2,10,GND*%
%TO.N,GND*%
X138390000Y-115930000D03*
%TO.P,U2,11,DIO3*%
%TO.N,/LORA_DIO3*%
X138390000Y-113930000D03*
%TO.P,U2,12,NC*%
%TO.N,unconnected-(U2-NC-Pad12)*%
X138390000Y-111930000D03*
%TO.P,U2,13,3.3V*%
%TO.N,+3.3VP*%
X138390000Y-109930000D03*
%TO.P,U2,14,NC*%
%TO.N,unconnected-(U2-NC-Pad14)*%
X138390000Y-107930000D03*
%TO.P,U2,15,DIO1*%
%TO.N,/LORA_DIO1*%
X138390000Y-105930000D03*
%TO.P,U2,16,BUSY*%
%TO.N,/LORA_BUSY*%
X138390000Y-103930000D03*
%TD*%
D17*
%TO.P,C4,1*%
%TO.N,+3.3VP*%
X125220000Y-91030000D03*
%TO.P,C4,2*%
%TO.N,GND*%
X125220000Y-89530000D03*
%TD*%
D18*
%TO.P,AE1,1,A*%
%TO.N,Net-(AE1-A)*%
X126330000Y-122757500D03*
D19*
X126310000Y-123987500D03*
D20*
X126317500Y-124967500D03*
D21*
%TO.P,AE1,2,Shield*%
%TO.N,GND*%
X129155000Y-125137500D03*
X123505000Y-125137500D03*
D22*
X128220000Y-125487500D03*
D23*
X124460000Y-125487500D03*
%TD*%
D13*
%TO.P,C2,1*%
%TO.N,Net-(A1-D5)*%
X128850000Y-97150000D03*
%TO.P,C2,2*%
%TO.N,GND*%
X128850000Y-92150000D03*
%TD*%
D24*
%TO.P,J7,1,Pin_1*%
%TO.N,/SCL1*%
X141340000Y-78785000D03*
D25*
%TO.P,J7,2,Pin_2*%
%TO.N,/SDA1*%
X141340000Y-80055000D03*
%TO.P,J7,3,Pin_3*%
%TO.N,+3.3VP*%
X141340000Y-81325000D03*
%TO.P,J7,4,Pin_4*%
%TO.N,GND*%
X141340000Y-82595000D03*
%TD*%
D11*
%TO.P,J10,1,Pin_1*%
%TO.N,GND*%
X139960000Y-76480000D03*
%TD*%
D24*
%TO.P,J3,1,Pin_1*%
%TO.N,/SCL1*%
X139230000Y-78780000D03*
D25*
%TO.P,J3,2,Pin_2*%
%TO.N,/SDA1*%
X139230000Y-80050000D03*
%TO.P,J3,3,Pin_3*%
%TO.N,+3.3VP*%
X139230000Y-81320000D03*
%TO.P,J3,4,Pin_4*%
%TO.N,GND*%
X139230000Y-82590000D03*
%TD*%
D11*
%TO.P,J11,1,Pin_1*%
%TO.N,/RST*%
X123500000Y-76640000D03*
D12*
%TO.P,J11,2,Pin_2*%
%TO.N,+3.3V*%
X123500000Y-79180000D03*
%TO.P,J11,3,Pin_3*%
%TO.N,/QON*%
X123500000Y-81720000D03*
%TO.P,J11,4,Pin_4*%
%TO.N,GND*%
X123500000Y-84260000D03*
%TD*%
D26*
%TO.P,J2,1,Pin_1*%
%TO.N,VDC*%
X135200000Y-124000000D03*
D27*
%TO.P,J2,2,Pin_2*%
%TO.N,GND*%
X132660000Y-124000000D03*
%TD*%
D14*
%TO.P,J9,1,Pin_1*%
%TO.N,GND*%
X121060000Y-124065000D03*
D12*
%TO.P,J9,2,Pin_2*%
%TO.N,/RXD0*%
X121060000Y-121525000D03*
%TO.P,J9,3,Pin_3*%
%TO.N,/TXD0*%
X121060000Y-118985000D03*
%TD*%
D28*
%TO.P,A1,*%
%TO.N,*%
X122240000Y-72840000D03*
X140020000Y-72840000D03*
D29*
%TO.P,A1,1,~{RST}*%
%TO.N,/RST*%
X120970000Y-76650000D03*
D13*
%TO.P,A1,2,3V3*%
%TO.N,+3.3V*%
X120970000Y-79190000D03*
%TO.P,A1,3,QON*%
%TO.N,/QON*%
X120970000Y-81730000D03*
%TO.P,A1,4,GND*%
%TO.N,GND*%
X120970000Y-84270000D03*
%TO.P,A1,5,A0*%
%TO.N,/GPS_TX*%
X120970000Y-86810000D03*
%TO.P,A1,6,A1*%
%TO.N,/GPS_RX*%
X120970000Y-89350000D03*
%TO.P,A1,7,A2*%
%TO.N,/GPS_PPS*%
X120970000Y-91890000D03*
%TO.P,A1,8,A3*%
%TO.N,/A3*%
X120970000Y-94430000D03*
%TO.P,A1,9,A4*%
%TO.N,/A4*%
X120970000Y-96970000D03*
%TO.P,A1,10,A5*%
%TO.N,/LORA_CS*%
X120970000Y-99510000D03*
%TO.P,A1,11,SCK*%
%TO.N,/LORA_SCK*%
X120970000Y-102050000D03*
%TO.P,A1,12,MOSI*%
%TO.N,/LORA_MOSI*%
X120970000Y-104590000D03*
%TO.P,A1,13,MISO*%
%TO.N,/LORA_MISO*%
X120970000Y-107130000D03*
%TO.P,A1,14,RX/D0*%
%TO.N,/RX*%
X120970000Y-109670000D03*
%TO.P,A1,15,TX/D1*%
%TO.N,/RXD0*%
X120970000Y-112210000D03*
%TO.P,A1,16,TXD0/D2*%
%TO.N,/TXD0*%
X120970000Y-114750000D03*
%TO.P,A1,17,SDA*%
%TO.N,/SDA*%
X141290000Y-114750000D03*
%TO.P,A1,18,SCL*%
%TO.N,/SCL*%
X141290000Y-112210000D03*
%TO.P,A1,19,D5*%
%TO.N,Net-(A1-D5)*%
X141290000Y-109670000D03*
%TO.P,A1,20,D6*%
%TO.N,Net-(A1-D6)*%
X141290000Y-107130000D03*
%TO.P,A1,21,D9*%
%TO.N,/LORA_DIO3*%
X141290000Y-104590000D03*
%TO.P,A1,22,D10*%
%TO.N,/LORA_DIO1*%
X141290000Y-102050000D03*
%TO.P,A1,23,D11*%
%TO.N,/D11*%
X141290000Y-99510000D03*
%TO.P,A1,24,D12*%
%TO.N,/LORA_BUSY*%
X141290000Y-96970000D03*
%TO.P,A1,25,D13*%
%TO.N,/D13*%
X141290000Y-94430000D03*
%TO.P,A1,26,VS*%
%TO.N,VS*%
X141290000Y-91890000D03*
%TO.P,A1,27,EN*%
%TO.N,/EN*%
X141290000Y-89350000D03*
%TO.P,A1,28,VBAT*%
%TO.N,+BATT*%
X141290000Y-86810000D03*
%TO.P,A1,29,GND*%
%TO.N,GND*%
X141290000Y-124910000D03*
%TO.P,A1,30,VDC*%
%TO.N,VDC*%
X141290000Y-122370000D03*
%TO.P,A1,31,D7*%
%TO.N,/D7*%
X141290000Y-119830000D03*
%TO.P,A1,32,D8*%
%TO.N,/LORA_RST*%
X141290000Y-117290000D03*
%TD*%
D14*
%TO.P,J1,1,Pin_1*%
%TO.N,+3.3V*%
X136187000Y-84290000D03*
D12*
%TO.P,J1,2,Pin_2*%
%TO.N,GND*%
X133647000Y-84290000D03*
%TO.P,J1,3,Pin_3*%
%TO.N,/GPS_TX*%
X131107000Y-84290000D03*
%TO.P,J1,4,Pin_4*%
%TO.N,/GPS_RX*%
X128567000Y-84290000D03*
%TO.P,J1,5,Pin_5*%
%TO.N,/GPS_PPS*%
X126027000Y-84290000D03*
%TD*%
D30*
%TO.N,GND*%
X129990000Y-119040000D03*
X130730000Y-113490000D03*
X136420000Y-100940000D03*
X136680000Y-94370000D03*
X132480000Y-95940000D03*
X134080000Y-119010000D03*
X140760000Y-126390000D03*
X121930000Y-125780000D03*
X129310000Y-116980000D03*
X128330000Y-119940000D03*
X128220000Y-95340000D03*
X123930000Y-98820000D03*
X133280000Y-122190000D03*
X130410000Y-107660000D03*
X123140000Y-92360000D03*
X131500000Y-116860000D03*
X134790000Y-103440000D03*
X128100000Y-111190000D03*
X135890000Y-119010000D03*
X133590000Y-116860000D03*
X127430000Y-117880000D03*
X135660000Y-116850000D03*
X127970000Y-123290000D03*
X125990000Y-119420000D03*
X131490000Y-125160000D03*
X126550000Y-86110000D03*
X132080000Y-119000000D03*
X137070000Y-90420000D03*
X124680000Y-123270000D03*
X135450000Y-126640000D03*
X125300000Y-121370000D03*
X127470000Y-121450000D03*
X129950000Y-86050000D03*
X133630000Y-108250000D03*
X134700000Y-98770000D03*
X133780000Y-112640000D03*
X130410000Y-102000000D03*
%TO.N,Net-(A1-D5)*%
X131520000Y-108950000D03*
X131470000Y-97160000D03*
%TO.N,Net-(A1-D6)*%
X133420000Y-106850000D03*
X133440000Y-97130000D03*
%TO.N,/GPS_RX*%
X127660000Y-87720000D03*
%TO.N,+3.3V*%
X122280000Y-82940000D03*
%TO.N,/GPS_PPS*%
X122510000Y-85710000D03*
%TO.N,/RX*%
X126960000Y-102040000D03*
X126970000Y-108870000D03*
%TO.N,/LORA_SCK*%
X126210000Y-102770000D03*
%TO.N,/LORA_DIO1*%
X136110000Y-102450000D03*
X136100000Y-105930000D03*
%TO.N,/LORA_CS*%
X127640000Y-99610000D03*
%TO.N,/LORA_DIO3*%
X134970000Y-105010000D03*
X134990000Y-113950000D03*
%TO.N,+3.3VP*%
X129120000Y-98710000D03*
X129090000Y-109920000D03*
X136870000Y-88040000D03*
%TO.N,/LORA_BUSY*%
X138150000Y-96410000D03*
%TD*%
D31*
%TO.N,GND*%
X141085000Y-82595000D02*
X141090000Y-82600000D01*
X138980000Y-82595000D02*
X141085000Y-82595000D01*
%TO.N,Net-(A1-D5)*%
X131460000Y-97150000D02*
X128850000Y-97150000D01*
X138120000Y-108960000D02*
X131530000Y-108960000D01*
X140580000Y-108960000D02*
X138120000Y-108960000D01*
X141290000Y-109670000D02*
X140580000Y-108960000D01*
X131470000Y-97160000D02*
X131460000Y-97150000D01*
X131530000Y-108960000D02*
X131520000Y-108950000D01*
%TO.N,Net-(A1-D6)*%
X133420000Y-106850000D02*
X133420000Y-106730000D01*
X141010000Y-106850000D02*
X133420000Y-106850000D01*
X141290000Y-107130000D02*
X141010000Y-106850000D01*
X133420000Y-106730000D02*
X133430000Y-106720000D01*
X133440000Y-97130000D02*
X133450000Y-97140000D01*
X133450000Y-97140000D02*
X136140000Y-97140000D01*
%TO.N,/GPS_RX*%
X120970000Y-89350000D02*
X122610000Y-87710000D01*
X122610000Y-87710000D02*
X123510000Y-87710000D01*
X123510000Y-87710000D02*
X127650000Y-87710000D01*
X127650000Y-87710000D02*
X127660000Y-87720000D01*
D32*
%TO.N,+3.3V*%
X120980000Y-79180000D02*
X120970000Y-79190000D01*
X134837000Y-82940000D02*
X122280000Y-82940000D01*
X136187000Y-84290000D02*
X134837000Y-82940000D01*
X123500000Y-79180000D02*
X120980000Y-79180000D01*
D31*
%TO.N,/GPS_PPS*%
X124607000Y-85710000D02*
X126027000Y-84290000D01*
X122510000Y-85710000D02*
X124607000Y-85710000D01*
%TO.N,/GPS_TX*%
X130360000Y-86810000D02*
X120970000Y-86810000D01*
X131107000Y-86063000D02*
X130360000Y-86810000D01*
X131107000Y-84290000D02*
X131107000Y-86063000D01*
%TO.N,/EN*%
X141280000Y-89340000D02*
X141290000Y-89350000D01*
X138740000Y-89340000D02*
X141280000Y-89340000D01*
D33*
%TO.N,VS*%
X138740000Y-91880000D02*
X141280000Y-91880000D01*
X141280000Y-91880000D02*
X141290000Y-91890000D01*
D31*
%TO.N,/RX*%
X126970000Y-108870000D02*
X121770000Y-108870000D01*
X124770000Y-102040000D02*
X126960000Y-102040000D01*
X121770000Y-108870000D02*
X120970000Y-109670000D01*
X123500000Y-100770000D02*
X124770000Y-102040000D01*
D33*
%TO.N,+BATT*%
X141280000Y-86800000D02*
X141290000Y-86810000D01*
X138740000Y-86800000D02*
X141280000Y-86800000D01*
D31*
%TO.N,/LORA_SCK*%
X121050000Y-102050000D02*
X120970000Y-102050000D01*
X121770000Y-102770000D02*
X121050000Y-102050000D01*
X126210000Y-102770000D02*
X121770000Y-102770000D01*
%TO.N,/QON*%
X123490000Y-81730000D02*
X123500000Y-81720000D01*
X120970000Y-81730000D02*
X123490000Y-81730000D01*
%TO.N,/LORA_MISO*%
X122170000Y-105930000D02*
X120970000Y-107130000D01*
X124130000Y-105930000D02*
X122170000Y-105930000D01*
%TO.N,/LORA_DIO1*%
X138190000Y-105930000D02*
X136100000Y-105930000D01*
X136110000Y-102450000D02*
X136140000Y-102420000D01*
X140920000Y-102420000D02*
X141290000Y-102050000D01*
X136140000Y-102420000D02*
X140920000Y-102420000D01*
%TO.N,/LORA_CS*%
X127640000Y-99610000D02*
X127540000Y-99510000D01*
X127540000Y-99510000D02*
X120970000Y-99510000D01*
%TO.N,/RST*%
X120970000Y-76650000D02*
X123490000Y-76650000D01*
X123490000Y-76650000D02*
X123500000Y-76640000D01*
%TO.N,/SCL1*%
X141085000Y-78785000D02*
X141090000Y-78790000D01*
X138980000Y-78785000D02*
X141085000Y-78785000D01*
%TO.N,/LORA_RST*%
X128850000Y-113950000D02*
X124150000Y-113950000D01*
X124150000Y-113950000D02*
X124130000Y-113930000D01*
X141290000Y-116380000D02*
X139860000Y-114950000D01*
X129850000Y-114950000D02*
X128850000Y-113950000D01*
X139860000Y-114950000D02*
X129850000Y-114950000D01*
X141290000Y-117290000D02*
X141290000Y-116380000D01*
D34*
%TO.N,VDC*%
X139240000Y-125186576D02*
X139240000Y-125450000D01*
D33*
X135200000Y-124000000D02*
X136650000Y-125450000D01*
D34*
X141290000Y-122370000D02*
X141290000Y-123136576D01*
X141290000Y-123136576D02*
X139240000Y-125186576D01*
D33*
X136650000Y-125450000D02*
X139240000Y-125450000D01*
D31*
%TO.N,/LORA_DIO3*%
X138190000Y-113930000D02*
X135010000Y-113930000D01*
X141290000Y-104590000D02*
X140920000Y-104960000D01*
X135020000Y-104960000D02*
X134970000Y-105010000D01*
X135010000Y-113930000D02*
X134990000Y-113950000D01*
X140920000Y-104960000D02*
X135020000Y-104960000D01*
D34*
%TO.N,Net-(AE1-A)*%
X126330000Y-122066854D02*
X126330000Y-122757500D01*
X127638427Y-119101573D02*
X127501573Y-119238427D01*
X138190000Y-117930000D02*
X130466854Y-117930000D01*
X127501573Y-119238427D02*
G75*
G03*
X126329968Y-122066854I2828427J-2828473D01*
G01*
X127638427Y-119101573D02*
G75*
G02*
X130466854Y-117929968I2828473J-2828427D01*
G01*
%TO.N,+3.3VP*%
X125220000Y-91030000D02*
X126580000Y-91030000D01*
X127350000Y-90260000D02*
X129570000Y-88040000D01*
X126200000Y-95680000D02*
X126200000Y-97480000D01*
X129100000Y-109930000D02*
X129090000Y-109920000D01*
X138190000Y-109930000D02*
X129100000Y-109930000D01*
X126580000Y-91030000D02*
X127350000Y-90260000D01*
X129570000Y-88040000D02*
X136870000Y-88040000D01*
X126200000Y-97480000D02*
X127430000Y-98710000D01*
X141085000Y-81325000D02*
X141090000Y-81330000D01*
X127430000Y-98710000D02*
X129120000Y-98710000D01*
X129120000Y-109890000D02*
X129090000Y-109920000D01*
X138980000Y-81325000D02*
X141085000Y-81325000D01*
D31*
%TO.N,/TXD0*%
X120970000Y-114750000D02*
X120970000Y-118895000D01*
X120970000Y-118895000D02*
X121060000Y-118985000D01*
X120970000Y-118730000D02*
X120990000Y-118750000D01*
D32*
%TO.N,/RXD0*%
X122237000Y-113477000D02*
X122237000Y-120348000D01*
X120970000Y-112210000D02*
X122237000Y-113477000D01*
X122237000Y-120348000D02*
X121060000Y-121525000D01*
D31*
%TO.N,/LORA_BUSY*%
X140730000Y-96410000D02*
X141290000Y-96970000D01*
X138150000Y-96410000D02*
X140730000Y-96410000D01*
%TO.N,/SDA1*%
X141085000Y-80055000D02*
X141090000Y-80060000D01*
X138980000Y-80055000D02*
X141085000Y-80055000D01*
%TO.N,/D11*%
X140270000Y-98280000D02*
X138730000Y-98280000D01*
X141290000Y-99510000D02*
X141290000Y-99300000D01*
X141290000Y-99300000D02*
X140270000Y-98280000D01*
%TO.N,/A4*%
X120970000Y-96970000D02*
X123490000Y-96970000D01*
X123490000Y-96970000D02*
X123500000Y-96960000D01*
%TO.N,/A3*%
X123490000Y-94430000D02*
X123500000Y-94420000D01*
X120970000Y-94430000D02*
X123490000Y-94430000D01*
%TO.N,/D13*%
X138740000Y-94420000D02*
X141280000Y-94420000D01*
X141280000Y-94420000D02*
X141290000Y-94430000D01*
%TD*%
%TA.AperFunction,Conductor*%
%TO.N,GND*%
G36*
X128616942Y-114570185D02*
G01*
X128637583Y-114586818D01*
X129481284Y-115430520D01*
X129481286Y-115430521D01*
X129481290Y-115430524D01*
X129618209Y-115509573D01*
X129618216Y-115509577D01*
X129770943Y-115550501D01*
X129770945Y-115550501D01*
X129936654Y-115550501D01*
X129936670Y-115550500D01*
X139559903Y-115550500D01*
X139626942Y-115570185D01*
X139647584Y-115586819D01*
X140313107Y-116252342D01*
X140346592Y-116313665D01*
X140341608Y-116383357D01*
X140313110Y-116427701D01*
X140289954Y-116450857D01*
X140159432Y-116637265D01*
X140159431Y-116637267D01*
X140066190Y-116837221D01*
X140020017Y-116889660D01*
X139952823Y-116908812D01*
X139890393Y-116889941D01*
X139890114Y-116890454D01*
X139887665Y-116889116D01*
X139885942Y-116888596D01*
X139883219Y-116886689D01*
X139882328Y-116886202D01*
X139747482Y-116835908D01*
X139747483Y-116835908D01*
X139687883Y-116829501D01*
X139687881Y-116829500D01*
X139687873Y-116829500D01*
X139687864Y-116829500D01*
X137092129Y-116829500D01*
X137092123Y-116829501D01*
X137032516Y-116835908D01*
X136897671Y-116886202D01*
X136897664Y-116886206D01*
X136782455Y-116972452D01*
X136782452Y-116972455D01*
X136696206Y-117087664D01*
X136696202Y-117087671D01*
X136693533Y-117094830D01*
X136651663Y-117150765D01*
X136586200Y-117175184D01*
X136577350Y-117175500D01*
X130552279Y-117175500D01*
X130552259Y-117175499D01*
X130518238Y-117175499D01*
X130518129Y-117175467D01*
X130280046Y-117175470D01*
X130280035Y-117175471D01*
X129907588Y-117204787D01*
X129907576Y-117204788D01*
X129538576Y-117263236D01*
X129538573Y-117263236D01*
X129538571Y-117263237D01*
X129175285Y-117350459D01*
X129175281Y-117350460D01*
X128819967Y-117465912D01*
X128819961Y-117465914D01*
X128617745Y-117549677D01*
X128474796Y-117608890D01*
X128474781Y-117608896D01*
X128141921Y-117778501D01*
X128141904Y-117778511D01*
X127823350Y-117973725D01*
X127823324Y-117973743D01*
X127521106Y-118193321D01*
X127521088Y-118193335D01*
X127237006Y-118435968D01*
X127236993Y-118435980D01*
X127179184Y-118493791D01*
X127157462Y-118515514D01*
X127033440Y-118639535D01*
X126911484Y-118761490D01*
X126911044Y-118761975D01*
X126836011Y-118837007D01*
X126835997Y-118837022D01*
X126593361Y-119121108D01*
X126593347Y-119121126D01*
X126373769Y-119423342D01*
X126373752Y-119423368D01*
X126178539Y-119741919D01*
X126178529Y-119741936D01*
X126008925Y-120074794D01*
X126008919Y-120074809D01*
X125865942Y-120419977D01*
X125750491Y-120775289D01*
X125750490Y-120775292D01*
X125737344Y-120830047D01*
X125667368Y-121121508D01*
X125663268Y-121138583D01*
X125605322Y-121504414D01*
X125575392Y-121567549D01*
X125559011Y-121582868D01*
X125378222Y-121723581D01*
X125378219Y-121723584D01*
X125378216Y-121723586D01*
X125378216Y-121723587D01*
X125319267Y-121787622D01*
X125221016Y-121894352D01*
X125094075Y-122088651D01*
X125000842Y-122301199D01*
X124943866Y-122526191D01*
X124943864Y-122526202D01*
X124924700Y-122757493D01*
X124924700Y-122757506D01*
X124943864Y-122988797D01*
X124943866Y-122988808D01*
X125000842Y-123213800D01*
X125071373Y-123374592D01*
X125094076Y-123426349D01*
X125220058Y-123619179D01*
X125240245Y-123686068D01*
X125233955Y-123726003D01*
X125180070Y-123888619D01*
X125169500Y-123992073D01*
X125169500Y-125942911D01*
X125169501Y-125942927D01*
X125180070Y-126046379D01*
X125235615Y-126214004D01*
X125235620Y-126214015D01*
X125328320Y-126364304D01*
X125332801Y-126369971D01*
X125330361Y-126371900D01*
X125357166Y-126420989D01*
X125360000Y-126447347D01*
X125360000Y-126965500D01*
X125340315Y-127032539D01*
X125287511Y-127078294D01*
X125236000Y-127089500D01*
X122154052Y-127089500D01*
X122145942Y-127089234D01*
X121884070Y-127072069D01*
X121867989Y-127069952D01*
X121614579Y-127019546D01*
X121598911Y-127015348D01*
X121354254Y-126932298D01*
X121339269Y-126926091D01*
X121107539Y-126811814D01*
X121093493Y-126803704D01*
X120878663Y-126660160D01*
X120865794Y-126650286D01*
X120671539Y-126479929D01*
X120660070Y-126468460D01*
X120575389Y-126371900D01*
X120489710Y-126274202D01*
X120479839Y-126261336D01*
X120336295Y-126046506D01*
X120328185Y-126032460D01*
X120255900Y-125885881D01*
X120213907Y-125800729D01*
X120207704Y-125785752D01*
X120124648Y-125541077D01*
X120120453Y-125525420D01*
X120114162Y-125493793D01*
X120070046Y-125272005D01*
X120067931Y-125255949D01*
X120050764Y-124994028D01*
X120050500Y-124985948D01*
X120050500Y-122704999D01*
X120070185Y-122637960D01*
X120122989Y-122592205D01*
X120192147Y-122582261D01*
X120245623Y-122603424D01*
X120382165Y-122699032D01*
X120382167Y-122699033D01*
X120382170Y-122699035D01*
X120596337Y-122798903D01*
X120824592Y-122860063D01*
X121012918Y-122876539D01*
X121059999Y-122880659D01*
X121060000Y-122880659D01*
X121060001Y-122880659D01*
X121099234Y-122877226D01*
X121295408Y-122860063D01*
X121523663Y-122798903D01*
X121737830Y-122699035D01*
X121931401Y-122563495D01*
X122098495Y-122396401D01*
X122234035Y-122202830D01*
X122333903Y-121988663D01*
X122395063Y-121760408D01*
X122415659Y-121525000D01*
X122395063Y-121289592D01*
X122368741Y-121191357D01*
X122370404Y-121121508D01*
X122400833Y-121071584D01*
X122724411Y-120748008D01*
X122793083Y-120645233D01*
X122840385Y-120531035D01*
X122849993Y-120482734D01*
X122864500Y-120409806D01*
X122864500Y-117154499D01*
X122884185Y-117087460D01*
X122936989Y-117041705D01*
X122988500Y-117030499D01*
X125227871Y-117030499D01*
X125227872Y-117030499D01*
X125287483Y-117024091D01*
X125422331Y-116973796D01*
X125537546Y-116887546D01*
X125623796Y-116772331D01*
X125674091Y-116637483D01*
X125680500Y-116577873D01*
X125680499Y-115282128D01*
X125674091Y-115222517D01*
X125623796Y-115087669D01*
X125561393Y-115004310D01*
X125536977Y-114938847D01*
X125551828Y-114870574D01*
X125561394Y-114855689D01*
X125623796Y-114772331D01*
X125674091Y-114637483D01*
X125676447Y-114631167D01*
X125718318Y-114575233D01*
X125783782Y-114550816D01*
X125792629Y-114550500D01*
X128549903Y-114550500D01*
X128616942Y-114570185D01*
G37*
%TD.AperFunction*%
%TA.AperFunction,Conductor*%
G36*
X140345701Y-118185335D02*
G01*
X140352180Y-118191367D01*
X140450858Y-118290045D01*
X140450861Y-118290047D01*
X140637266Y-118420568D01*
X140695275Y-118447618D01*
X140747714Y-118493791D01*
X140766866Y-118560984D01*
X140746650Y-118627865D01*
X140695275Y-118672382D01*
X140637267Y-118699431D01*
X140637265Y-118699432D01*
X140450858Y-118829954D01*
X140289954Y-118990858D01*
X140159432Y-119177265D01*
X140159431Y-119177267D01*
X140063261Y-119383502D01*
X140063258Y-119383511D01*
X140004366Y-119603302D01*
X140004364Y-119603313D01*
X139984532Y-119829998D01*
X139984532Y-119830001D01*
X140004364Y-120056686D01*
X140004366Y-120056697D01*
X140023960Y-120129822D01*
X140022297Y-120199672D01*
X139983134Y-120257534D01*
X139918906Y-120285038D01*
X139850004Y-120273451D01*
X139802610Y-120233039D01*
X139778491Y-120198594D01*
X139611402Y-120031506D01*
X139611395Y-120031501D01*
X139599961Y-120023495D01*
X139571323Y-120003442D01*
X139417834Y-119895967D01*
X139417830Y-119895965D01*
X139395165Y-119885396D01*
X139203663Y-119796097D01*
X139203659Y-119796096D01*
X139203655Y-119796094D01*
X138975413Y-119734938D01*
X138975403Y-119734936D01*
X138740001Y-119714341D01*
X138739999Y-119714341D01*
X138504596Y-119734936D01*
X138504586Y-119734938D01*
X138276344Y-119796094D01*
X138276335Y-119796098D01*
X138062171Y-119895964D01*
X138062169Y-119895965D01*
X137868597Y-120031505D01*
X137701505Y-120198597D01*
X137565965Y-120392169D01*
X137565964Y-120392171D01*
X137466098Y-120606335D01*
X137466094Y-120606344D01*
X137404938Y-120834586D01*
X137404936Y-120834596D01*
X137384341Y-121069999D01*
X137384341Y-121070000D01*
X137404936Y-121305403D01*
X137404938Y-121305413D01*
X137466094Y-121533655D01*
X137466096Y-121533659D01*
X137466097Y-121533663D01*
X137554659Y-121723584D01*
X137565965Y-121747830D01*
X137565967Y-121747834D01*
X137651348Y-121869769D01*
X137701501Y-121941396D01*
X137701506Y-121941402D01*
X137868597Y-122108493D01*
X137868603Y-122108498D01*
X138054158Y-122238425D01*
X138097783Y-122293002D01*
X138104977Y-122362500D01*
X138073454Y-122424855D01*
X138054158Y-122441575D01*
X137868597Y-122571505D01*
X137701505Y-122738597D01*
X137565965Y-122932169D01*
X137565964Y-122932171D01*
X137466098Y-123146335D01*
X137466094Y-123146344D01*
X137404938Y-123374586D01*
X137404936Y-123374596D01*
X137384341Y-123609999D01*
X137384341Y-123610000D01*
X137404936Y-123845403D01*
X137404938Y-123845413D01*
X137466094Y-124073655D01*
X137466099Y-124073669D01*
X137496142Y-124138096D01*
X137506634Y-124207173D01*
X137478114Y-124270957D01*
X137419637Y-124309196D01*
X137383760Y-124314500D01*
X137171701Y-124314500D01*
X137104662Y-124294815D01*
X137084020Y-124278181D01*
X136786818Y-123980979D01*
X136753333Y-123919656D01*
X136750499Y-123893298D01*
X136750499Y-122902129D01*
X136750498Y-122902123D01*
X136750497Y-122902116D01*
X136744091Y-122842517D01*
X136727823Y-122798901D01*
X136693797Y-122707671D01*
X136693793Y-122707664D01*
X136607547Y-122592455D01*
X136607544Y-122592452D01*
X136492335Y-122506206D01*
X136492328Y-122506202D01*
X136357482Y-122455908D01*
X136357483Y-122455908D01*
X136297883Y-122449501D01*
X136297881Y-122449500D01*
X136297873Y-122449500D01*
X136297864Y-122449500D01*
X134102129Y-122449500D01*
X134102123Y-122449501D01*
X134042516Y-122455908D01*
X133907671Y-122506202D01*
X133907664Y-122506206D01*
X133792455Y-122592452D01*
X133792452Y-122592455D01*
X133706206Y-122707664D01*
X133706202Y-122707671D01*
X133655908Y-122842517D01*
X133651808Y-122880659D01*
X133649501Y-122902123D01*
X133649500Y-122902135D01*
X133649500Y-125097870D01*
X133649501Y-125097876D01*
X133655908Y-125157483D01*
X133706202Y-125292328D01*
X133706206Y-125292335D01*
X133792452Y-125407544D01*
X133792455Y-125407547D01*
X133907664Y-125493793D01*
X133907671Y-125493797D01*
X134042517Y-125544091D01*
X134042516Y-125544091D01*
X134049444Y-125544835D01*
X134102127Y-125550500D01*
X135093298Y-125550499D01*
X135160337Y-125570183D01*
X135180979Y-125586818D01*
X135783889Y-126189728D01*
X135910272Y-126316111D01*
X136006669Y-126386148D01*
X136054869Y-126421168D01*
X136106249Y-126447347D01*
X136214119Y-126502309D01*
X136255802Y-126515851D01*
X136255804Y-126515853D01*
X136255805Y-126515853D01*
X136287880Y-126526275D01*
X136384103Y-126557541D01*
X136459759Y-126569523D01*
X136560630Y-126585500D01*
X136560634Y-126585500D01*
X139329365Y-126585500D01*
X139329366Y-126585500D01*
X139505897Y-126557540D01*
X139505900Y-126557539D01*
X139505901Y-126557539D01*
X139675878Y-126502310D01*
X139675878Y-126502309D01*
X139675881Y-126502309D01*
X139835132Y-126421167D01*
X139979728Y-126316111D01*
X140106111Y-126189728D01*
X140211167Y-126045132D01*
X140292309Y-125885881D01*
X140347540Y-125715897D01*
X140375500Y-125539366D01*
X140375500Y-125360634D01*
X140352222Y-125213663D01*
X140361177Y-125144371D01*
X140387011Y-125106588D01*
X141770963Y-123722636D01*
X141770966Y-123722635D01*
X141876059Y-123617542D01*
X141946941Y-123511459D01*
X141951393Y-123504795D01*
X141983370Y-123472114D01*
X142004377Y-123457405D01*
X142070584Y-123435077D01*
X142138351Y-123452089D01*
X142186163Y-123503037D01*
X142199500Y-123558980D01*
X142199500Y-124985948D01*
X142199234Y-124994058D01*
X142182069Y-125255929D01*
X142179952Y-125272010D01*
X142129546Y-125525420D01*
X142125348Y-125541088D01*
X142042298Y-125785745D01*
X142036091Y-125800730D01*
X141921814Y-126032460D01*
X141913704Y-126046506D01*
X141770160Y-126261336D01*
X141760286Y-126274205D01*
X141589929Y-126468460D01*
X141578460Y-126479929D01*
X141384205Y-126650286D01*
X141371336Y-126660160D01*
X141156506Y-126803704D01*
X141142460Y-126811814D01*
X140910730Y-126926091D01*
X140895745Y-126932298D01*
X140651088Y-127015348D01*
X140635420Y-127019546D01*
X140382010Y-127069952D01*
X140365929Y-127072069D01*
X140104058Y-127089234D01*
X140095948Y-127089500D01*
X127384000Y-127089500D01*
X127316961Y-127069815D01*
X127271206Y-127017011D01*
X127260000Y-126965500D01*
X127260000Y-126462347D01*
X127279685Y-126395308D01*
X127296319Y-126374666D01*
X127301014Y-126369971D01*
X127306677Y-126364308D01*
X127399384Y-126214007D01*
X127454930Y-126046378D01*
X127465500Y-125942919D01*
X127465499Y-123992082D01*
X127454930Y-123888622D01*
X127408373Y-123748123D01*
X127405972Y-123678295D01*
X127434853Y-123625133D01*
X127438979Y-123620653D01*
X127565924Y-123426349D01*
X127659157Y-123213800D01*
X127716134Y-122988805D01*
X127723316Y-122902128D01*
X127735300Y-122757506D01*
X127735300Y-122757493D01*
X127716135Y-122526202D01*
X127716133Y-122526191D01*
X127659157Y-122301199D01*
X127565924Y-122088651D01*
X127438983Y-121894352D01*
X127438980Y-121894349D01*
X127438979Y-121894347D01*
X127281784Y-121723587D01*
X127281779Y-121723583D01*
X127281776Y-121723579D01*
X127179397Y-121643895D01*
X127138584Y-121587185D01*
X127132901Y-121527846D01*
X127133323Y-121525000D01*
X127145976Y-121439709D01*
X127148348Y-121427792D01*
X127222782Y-121130651D01*
X127226310Y-121119017D01*
X127329509Y-120830604D01*
X127334165Y-120819365D01*
X127367578Y-120748721D01*
X127465135Y-120542459D01*
X127470868Y-120531734D01*
X127500239Y-120482734D01*
X127628357Y-120268985D01*
X127635115Y-120258874D01*
X127636109Y-120257534D01*
X127817594Y-120012832D01*
X127825287Y-120003458D01*
X128033531Y-119773701D01*
X128037677Y-119769346D01*
X128108801Y-119698223D01*
X128108808Y-119698217D01*
X128115869Y-119691156D01*
X128169792Y-119637231D01*
X128174180Y-119633054D01*
X128403438Y-119425262D01*
X128412812Y-119417569D01*
X128658861Y-119235084D01*
X128668967Y-119228330D01*
X128931733Y-119070831D01*
X128942435Y-119065111D01*
X129219360Y-118934132D01*
X129230580Y-118929484D01*
X129519016Y-118826277D01*
X129530629Y-118822753D01*
X129827804Y-118748312D01*
X129839702Y-118745945D01*
X130142720Y-118700993D01*
X130154827Y-118699801D01*
X130463180Y-118684649D01*
X130469266Y-118684500D01*
X136577350Y-118684500D01*
X136644389Y-118704185D01*
X136690144Y-118756989D01*
X136693533Y-118765170D01*
X136696202Y-118772328D01*
X136696206Y-118772335D01*
X136782452Y-118887544D01*
X136782455Y-118887547D01*
X136897664Y-118973793D01*
X136897671Y-118973797D01*
X137032517Y-119024091D01*
X137032516Y-119024091D01*
X137039444Y-119024835D01*
X137092127Y-119030500D01*
X139687872Y-119030499D01*
X139747483Y-119024091D01*
X139882331Y-118973796D01*
X139997546Y-118887546D01*
X140083796Y-118772331D01*
X140134091Y-118637483D01*
X140140500Y-118577873D01*
X140140499Y-118279046D01*
X140160183Y-118212009D01*
X140212987Y-118166254D01*
X140282146Y-118156310D01*
X140345701Y-118185335D01*
G37*
%TD.AperFunction*%
%TA.AperFunction,Conductor*%
G36*
X127134099Y-88330185D02*
G01*
X127154741Y-88346819D01*
X127157738Y-88349816D01*
X127157958Y-88349954D01*
X127285849Y-88430314D01*
X127310478Y-88445789D01*
X127480745Y-88505368D01*
X127480750Y-88505369D01*
X127659996Y-88525565D01*
X127660000Y-88525565D01*
X127660001Y-88525565D01*
X127671263Y-88524295D01*
X127710649Y-88519858D01*
X127779470Y-88531912D01*
X127830850Y-88579261D01*
X127848475Y-88646871D01*
X127826749Y-88713277D01*
X127812214Y-88730759D01*
X126763941Y-89779034D01*
X126303794Y-90239181D01*
X126242471Y-90272666D01*
X126216113Y-90275500D01*
X126073919Y-90275500D01*
X126006880Y-90255815D01*
X125990381Y-90243137D01*
X125886041Y-90148019D01*
X125886039Y-90148017D01*
X125712642Y-90040655D01*
X125712635Y-90040651D01*
X125614759Y-90002734D01*
X125522456Y-89966976D01*
X125321976Y-89929500D01*
X125118024Y-89929500D01*
X124917544Y-89966976D01*
X124917541Y-89966976D01*
X124917541Y-89966977D01*
X124727364Y-90040651D01*
X124727357Y-90040655D01*
X124553960Y-90148017D01*
X124553958Y-90148019D01*
X124403237Y-90285418D01*
X124280327Y-90448178D01*
X124189422Y-90630739D01*
X124189417Y-90630752D01*
X124133602Y-90826917D01*
X124114785Y-91029999D01*
X124114785Y-91030000D01*
X124133602Y-91233082D01*
X124189417Y-91429247D01*
X124189422Y-91429260D01*
X124280327Y-91611821D01*
X124403237Y-91774581D01*
X124553958Y-91911980D01*
X124553960Y-91911982D01*
X124653141Y-91973392D01*
X124727363Y-92019348D01*
X124917544Y-92093024D01*
X125118024Y-92130500D01*
X125118026Y-92130500D01*
X125321974Y-92130500D01*
X125321976Y-92130500D01*
X125522456Y-92093024D01*
X125712637Y-92019348D01*
X125886041Y-91911981D01*
X125956781Y-91847492D01*
X125990381Y-91816863D01*
X126053185Y-91786246D01*
X126073919Y-91784500D01*
X126499554Y-91784500D01*
X126499574Y-91784501D01*
X126505688Y-91784501D01*
X126654314Y-91784501D01*
X126775894Y-91760315D01*
X126775894Y-91760316D01*
X126775900Y-91760313D01*
X126800080Y-91755505D01*
X126835942Y-91740649D01*
X126856944Y-91731951D01*
X126856947Y-91731949D01*
X126856955Y-91731946D01*
X126937389Y-91698630D01*
X127060966Y-91616059D01*
X127820756Y-90856266D01*
X127820761Y-90856263D01*
X127830964Y-90846059D01*
X127830966Y-90846059D01*
X129846206Y-88830819D01*
X129907529Y-88797334D01*
X129933887Y-88794500D01*
X136581460Y-88794500D01*
X136622415Y-88801459D01*
X136690737Y-88825366D01*
X136690743Y-88825367D01*
X136690745Y-88825368D01*
X136690746Y-88825368D01*
X136690750Y-88825369D01*
X136869996Y-88845565D01*
X136870000Y-88845565D01*
X136870004Y-88845565D01*
X137049249Y-88825369D01*
X137049252Y-88825368D01*
X137049255Y-88825368D01*
X137219522Y-88765789D01*
X137285211Y-88724513D01*
X137352446Y-88705513D01*
X137419282Y-88725880D01*
X137464496Y-88779147D01*
X137473735Y-88848404D01*
X137467706Y-88871915D01*
X137466096Y-88876336D01*
X137404938Y-89104586D01*
X137404936Y-89104596D01*
X137384341Y-89339999D01*
X137384341Y-89340000D01*
X137404936Y-89575403D01*
X137404938Y-89575413D01*
X137466094Y-89803655D01*
X137466096Y-89803659D01*
X137466097Y-89803663D01*
X137538839Y-89959658D01*
X137565965Y-90017830D01*
X137565967Y-90017834D01*
X137701501Y-90211395D01*
X137701506Y-90211402D01*
X137868597Y-90378493D01*
X137868603Y-90378498D01*
X138054158Y-90508425D01*
X138097783Y-90563002D01*
X138104977Y-90632500D01*
X138073454Y-90694855D01*
X138054158Y-90711575D01*
X137868597Y-90841505D01*
X137701505Y-91008597D01*
X137565965Y-91202169D01*
X137565964Y-91202171D01*
X137466098Y-91416335D01*
X137466094Y-91416344D01*
X137404938Y-91644586D01*
X137404936Y-91644596D01*
X137384341Y-91879999D01*
X137384341Y-91880000D01*
X137404936Y-92115403D01*
X137404938Y-92115413D01*
X137466094Y-92343655D01*
X137466096Y-92343659D01*
X137466097Y-92343663D01*
X137558925Y-92542732D01*
X137565965Y-92557830D01*
X137565967Y-92557834D01*
X137701501Y-92751395D01*
X137701506Y-92751402D01*
X137868597Y-92918493D01*
X137868603Y-92918498D01*
X138054158Y-93048425D01*
X138097783Y-93103002D01*
X138104977Y-93172500D01*
X138073454Y-93234855D01*
X138054158Y-93251575D01*
X137868597Y-93381505D01*
X137701505Y-93548597D01*
X137565965Y-93742169D01*
X137565964Y-93742171D01*
X137466098Y-93956335D01*
X137466094Y-93956344D01*
X137404938Y-94184586D01*
X137404936Y-94184596D01*
X137384341Y-94419999D01*
X137384341Y-94420000D01*
X137404936Y-94655403D01*
X137404938Y-94655413D01*
X137466094Y-94883655D01*
X137466096Y-94883659D01*
X137466097Y-94883663D01*
X137538839Y-95039658D01*
X137565965Y-95097830D01*
X137565967Y-95097834D01*
X137660964Y-95233502D01*
X137701505Y-95291401D01*
X137868599Y-95458495D01*
X137868603Y-95458498D01*
X137871468Y-95460902D01*
X137872386Y-95462282D01*
X137872427Y-95462323D01*
X137872418Y-95462331D01*
X137910168Y-95519075D01*
X137911274Y-95588936D01*
X137874435Y-95648305D01*
X137832714Y-95672930D01*
X137800480Y-95684209D01*
X137647737Y-95780184D01*
X137520184Y-95907737D01*
X137424211Y-96060476D01*
X137364631Y-96230745D01*
X137364631Y-96230746D01*
X137363410Y-96241583D01*
X137336339Y-96305996D01*
X137278742Y-96345548D01*
X137208905Y-96347682D01*
X137149001Y-96311720D01*
X137143568Y-96304970D01*
X137143526Y-96305006D01*
X137140048Y-96300861D01*
X136979141Y-96139954D01*
X136792734Y-96009432D01*
X136792732Y-96009431D01*
X136586497Y-95913261D01*
X136586488Y-95913258D01*
X136366697Y-95854366D01*
X136366693Y-95854365D01*
X136366692Y-95854365D01*
X136366691Y-95854364D01*
X136366686Y-95854364D01*
X136140002Y-95834532D01*
X136139998Y-95834532D01*
X135913313Y-95854364D01*
X135913302Y-95854366D01*
X135693511Y-95913258D01*
X135693502Y-95913261D01*
X135487267Y-96009431D01*
X135487265Y-96009432D01*
X135300858Y-96139954D01*
X135139954Y-96300858D01*
X135088300Y-96374630D01*
X135009881Y-96486624D01*
X134955307Y-96530248D01*
X134908308Y-96539500D01*
X134032940Y-96539500D01*
X133965901Y-96519815D01*
X133945259Y-96503181D01*
X133942262Y-96500184D01*
X133789523Y-96404211D01*
X133619254Y-96344631D01*
X133619249Y-96344630D01*
X133440004Y-96324435D01*
X133439996Y-96324435D01*
X133260750Y-96344630D01*
X133260745Y-96344631D01*
X133090476Y-96404211D01*
X132937737Y-96500184D01*
X132810184Y-96627737D01*
X132714211Y-96780476D01*
X132654631Y-96950745D01*
X132654630Y-96950750D01*
X132634435Y-97129996D01*
X132634435Y-97130003D01*
X132654630Y-97309249D01*
X132654631Y-97309254D01*
X132714211Y-97479523D01*
X132792863Y-97604696D01*
X132810184Y-97632262D01*
X132937738Y-97759816D01*
X132980713Y-97786819D01*
X133061194Y-97837389D01*
X133090478Y-97855789D01*
X133232993Y-97905657D01*
X133260745Y-97915368D01*
X133260750Y-97915369D01*
X133439996Y-97935565D01*
X133440000Y-97935565D01*
X133440004Y-97935565D01*
X133619249Y-97915369D01*
X133619252Y-97915368D01*
X133619255Y-97915368D01*
X133789522Y-97855789D01*
X133942262Y-97759816D01*
X133942262Y-97759815D01*
X133942755Y-97759506D01*
X134008727Y-97740500D01*
X134908308Y-97740500D01*
X134975347Y-97760185D01*
X135009880Y-97793374D01*
X135074589Y-97885788D01*
X135139954Y-97979141D01*
X135300858Y-98140045D01*
X135300861Y-98140047D01*
X135487266Y-98270568D01*
X135693504Y-98366739D01*
X135913308Y-98425635D01*
X136075230Y-98439801D01*
X136139998Y-98445468D01*
X136140000Y-98445468D01*
X136140002Y-98445468D01*
X136196673Y-98440509D01*
X136366692Y-98425635D01*
X136586496Y-98366739D01*
X136792734Y-98270568D01*
X136979139Y-98140047D01*
X137140047Y-97979139D01*
X137177987Y-97924953D01*
X137232563Y-97881329D01*
X137302061Y-97874135D01*
X137364416Y-97905657D01*
X137399831Y-97965886D01*
X137399337Y-98028169D01*
X137394939Y-98044583D01*
X137394936Y-98044596D01*
X137374341Y-98279999D01*
X137374341Y-98280000D01*
X137394936Y-98515403D01*
X137394938Y-98515413D01*
X137456094Y-98743655D01*
X137456096Y-98743659D01*
X137456097Y-98743663D01*
X137523988Y-98889255D01*
X137555965Y-98957830D01*
X137555967Y-98957834D01*
X137627171Y-99059523D01*
X137691501Y-99151396D01*
X137691506Y-99151402D01*
X137858597Y-99318493D01*
X137858603Y-99318498D01*
X138044158Y-99448425D01*
X138087783Y-99503002D01*
X138094977Y-99572500D01*
X138063454Y-99634855D01*
X138044158Y-99651575D01*
X137858597Y-99781505D01*
X137691505Y-99948597D01*
X137555965Y-100142169D01*
X137555964Y-100142171D01*
X137456098Y-100356335D01*
X137456094Y-100356344D01*
X137394938Y-100584586D01*
X137394936Y-100584596D01*
X137374341Y-100819999D01*
X137374341Y-100820000D01*
X137394936Y-101055403D01*
X137394938Y-101055413D01*
X137456094Y-101283655D01*
X137456096Y-101283659D01*
X137456097Y-101283663D01*
X137555965Y-101497830D01*
X137644574Y-101624376D01*
X137666901Y-101690583D01*
X137649891Y-101758350D01*
X137598943Y-101806163D01*
X137542999Y-101819500D01*
X136646897Y-101819500D01*
X136580925Y-101800494D01*
X136459522Y-101724211D01*
X136289254Y-101664631D01*
X136289249Y-101664630D01*
X136110004Y-101644435D01*
X136109996Y-101644435D01*
X135930750Y-101664630D01*
X135930745Y-101664631D01*
X135760476Y-101724211D01*
X135607737Y-101820184D01*
X135480184Y-101947737D01*
X135384211Y-102100476D01*
X135324631Y-102270745D01*
X135324630Y-102270750D01*
X135304435Y-102449996D01*
X135304435Y-102450003D01*
X135324630Y-102629249D01*
X135324631Y-102629254D01*
X135384211Y-102799523D01*
X135471516Y-102938467D01*
X135480184Y-102952262D01*
X135607738Y-103079816D01*
X135620236Y-103087669D01*
X135758814Y-103174744D01*
X135760478Y-103175789D01*
X135851440Y-103207618D01*
X135930745Y-103235368D01*
X135930750Y-103235369D01*
X136109996Y-103255565D01*
X136110000Y-103255565D01*
X136110004Y-103255565D01*
X136289249Y-103235369D01*
X136289252Y-103235368D01*
X136289255Y-103235368D01*
X136459522Y-103175789D01*
X136459531Y-103175782D01*
X136461691Y-103174744D01*
X136463235Y-103174489D01*
X136466095Y-103173489D01*
X136466270Y-103173989D01*
X136530631Y-103163388D01*
X136594768Y-103191106D01*
X136633737Y-103249099D01*
X136639500Y-103286461D01*
X136639501Y-104235500D01*
X136619817Y-104302539D01*
X136567013Y-104348294D01*
X136515501Y-104359500D01*
X135475068Y-104359500D01*
X135409096Y-104340494D01*
X135319522Y-104284210D01*
X135319518Y-104284209D01*
X135149262Y-104224633D01*
X135149249Y-104224630D01*
X134970004Y-104204435D01*
X134969996Y-104204435D01*
X134790750Y-104224630D01*
X134790745Y-104224631D01*
X134620476Y-104284211D01*
X134467737Y-104380184D01*
X134340184Y-104507737D01*
X134244211Y-104660476D01*
X134184631Y-104830745D01*
X134184630Y-104830750D01*
X134164435Y-105009996D01*
X134164435Y-105010003D01*
X134184630Y-105189249D01*
X134184631Y-105189254D01*
X134244211Y-105359523D01*
X134338565Y-105509686D01*
X134340184Y-105512262D01*
X134467738Y-105639816D01*
X134620478Y-105735789D01*
X134663220Y-105750745D01*
X134790745Y-105795368D01*
X134790750Y-105795369D01*
X134969996Y-105815565D01*
X134970000Y-105815565D01*
X134970004Y-105815565D01*
X135156175Y-105794589D01*
X135156503Y-105797507D01*
X135213105Y-105800932D01*
X135269494Y-105842186D01*
X135294629Y-105907379D01*
X135294396Y-105923036D01*
X135294435Y-105923036D01*
X135294435Y-105930003D01*
X135314897Y-106111617D01*
X135302842Y-106180439D01*
X135255493Y-106231818D01*
X135191677Y-106249500D01*
X134002412Y-106249500D01*
X133935373Y-106229815D01*
X133925097Y-106222445D01*
X133922263Y-106220185D01*
X133922262Y-106220184D01*
X133853553Y-106177011D01*
X133769523Y-106124211D01*
X133599254Y-106064631D01*
X133599249Y-106064630D01*
X133420004Y-106044435D01*
X133419996Y-106044435D01*
X133240750Y-106064630D01*
X133240745Y-106064631D01*
X133070476Y-106124211D01*
X132917737Y-106220184D01*
X132790184Y-106347737D01*
X132694211Y-106500476D01*
X132634631Y-106670745D01*
X132634630Y-106670750D01*
X132614435Y-106849996D01*
X132614435Y-106850003D01*
X132634630Y-107029249D01*
X132634631Y-107029254D01*
X132694211Y-107199523D01*
X132746116Y-107282128D01*
X132790184Y-107352262D01*
X132917738Y-107479816D01*
X133008080Y-107536582D01*
X133068426Y-107574500D01*
X133070478Y-107575789D01*
X133178147Y-107613464D01*
X133240745Y-107635368D01*
X133240750Y-107635369D01*
X133419996Y-107655565D01*
X133420000Y-107655565D01*
X133420004Y-107655565D01*
X133599249Y-107635369D01*
X133599252Y-107635368D01*
X133599255Y-107635368D01*
X133769522Y-107575789D01*
X133922262Y-107479816D01*
X133922267Y-107479810D01*
X133925097Y-107477555D01*
X133927275Y-107476665D01*
X133928158Y-107476111D01*
X133928255Y-107476265D01*
X133989783Y-107451145D01*
X134002412Y-107450500D01*
X136515500Y-107450500D01*
X136582539Y-107470185D01*
X136628294Y-107522989D01*
X136639500Y-107574500D01*
X136639501Y-108235500D01*
X136619817Y-108302539D01*
X136567013Y-108348294D01*
X136515501Y-108359500D01*
X132112940Y-108359500D01*
X132045901Y-108339815D01*
X132025259Y-108323181D01*
X132022262Y-108320184D01*
X131869523Y-108224211D01*
X131699254Y-108164631D01*
X131699249Y-108164630D01*
X131520004Y-108144435D01*
X131519996Y-108144435D01*
X131340750Y-108164630D01*
X131340745Y-108164631D01*
X131170476Y-108224211D01*
X131017737Y-108320184D01*
X130890184Y-108447737D01*
X130794211Y-108600476D01*
X130734631Y-108770745D01*
X130734630Y-108770750D01*
X130714435Y-108949996D01*
X130714435Y-108950004D01*
X130724306Y-109037617D01*
X130712251Y-109106439D01*
X130664902Y-109157818D01*
X130601086Y-109175500D01*
X129407119Y-109175500D01*
X129366164Y-109168542D01*
X129269254Y-109134631D01*
X129269249Y-109134630D01*
X129090004Y-109114435D01*
X129089996Y-109114435D01*
X128910750Y-109134630D01*
X128910745Y-109134631D01*
X128740476Y-109194211D01*
X128587737Y-109290184D01*
X128460184Y-109417737D01*
X128364211Y-109570476D01*
X128304631Y-109740745D01*
X128304630Y-109740750D01*
X128284435Y-109919996D01*
X128284435Y-109920003D01*
X128304630Y-110099249D01*
X128304631Y-110099254D01*
X128364211Y-110269523D01*
X128397646Y-110322734D01*
X128460184Y-110422262D01*
X128587738Y-110549816D01*
X128642751Y-110584383D01*
X128727252Y-110637479D01*
X128740478Y-110645789D01*
X128907364Y-110704185D01*
X128910745Y-110705368D01*
X128910750Y-110705369D01*
X129089996Y-110725565D01*
X129090000Y-110725565D01*
X129090004Y-110725565D01*
X129269246Y-110705369D01*
X129269245Y-110705369D01*
X129269255Y-110705368D01*
X129309004Y-110691458D01*
X129349959Y-110684500D01*
X136577350Y-110684500D01*
X136644389Y-110704185D01*
X136690144Y-110756989D01*
X136693533Y-110765170D01*
X136696202Y-110772328D01*
X136696203Y-110772330D01*
X136758606Y-110855689D01*
X136783023Y-110921153D01*
X136768172Y-110989426D01*
X136758606Y-111004311D01*
X136696203Y-111087669D01*
X136696202Y-111087671D01*
X136645908Y-111222517D01*
X136639695Y-111280314D01*
X136639501Y-111282123D01*
X136639500Y-111282135D01*
X136639500Y-112577870D01*
X136639501Y-112577876D01*
X136645908Y-112637483D01*
X136696202Y-112772328D01*
X136696203Y-112772330D01*
X136758606Y-112855689D01*
X136783023Y-112921153D01*
X136768172Y-112989426D01*
X136758606Y-113004311D01*
X136696203Y-113087669D01*
X136696202Y-113087671D01*
X136645908Y-113222517D01*
X136644126Y-113230062D01*
X136641853Y-113229525D01*
X136619571Y-113283312D01*
X136562177Y-113323157D01*
X136523024Y-113329500D01*
X135542812Y-113329500D01*
X135476840Y-113310494D01*
X135433580Y-113283312D01*
X135339522Y-113224211D01*
X135334678Y-113222516D01*
X135169254Y-113164631D01*
X135169249Y-113164630D01*
X134990004Y-113144435D01*
X134989996Y-113144435D01*
X134810750Y-113164630D01*
X134810745Y-113164631D01*
X134640476Y-113224211D01*
X134487737Y-113320184D01*
X134360184Y-113447737D01*
X134264211Y-113600476D01*
X134204631Y-113770745D01*
X134204630Y-113770750D01*
X134184435Y-113949996D01*
X134184435Y-113950003D01*
X134204630Y-114129249D01*
X134204633Y-114129262D01*
X134223978Y-114184545D01*
X134227540Y-114254324D01*
X134192812Y-114314951D01*
X134130818Y-114347179D01*
X134106937Y-114349500D01*
X130150098Y-114349500D01*
X130083059Y-114329815D01*
X130062417Y-114313181D01*
X129337590Y-113588355D01*
X129337588Y-113588352D01*
X129218717Y-113469481D01*
X129218709Y-113469475D01*
X129116936Y-113410717D01*
X129116934Y-113410716D01*
X129081790Y-113390425D01*
X129081789Y-113390424D01*
X129069263Y-113387067D01*
X128929057Y-113349499D01*
X128770943Y-113349499D01*
X128763347Y-113349499D01*
X128763331Y-113349500D01*
X125799126Y-113349500D01*
X125732087Y-113329815D01*
X125686332Y-113277011D01*
X125675836Y-113238751D01*
X125674091Y-113222516D01*
X125623797Y-113087671D01*
X125623796Y-113087669D01*
X125561394Y-113004311D01*
X125536977Y-112938847D01*
X125551828Y-112870574D01*
X125561394Y-112855689D01*
X125623796Y-112772331D01*
X125674091Y-112637483D01*
X125680500Y-112577873D01*
X125680499Y-111282128D01*
X125674091Y-111222517D01*
X125669405Y-111209954D01*
X125623797Y-111087671D01*
X125623796Y-111087669D01*
X125561394Y-111004311D01*
X125536977Y-110938847D01*
X125551828Y-110870574D01*
X125561394Y-110855689D01*
X125602656Y-110800570D01*
X125623796Y-110772331D01*
X125674091Y-110637483D01*
X125680500Y-110577873D01*
X125680499Y-109594499D01*
X125700183Y-109527461D01*
X125752987Y-109481706D01*
X125804499Y-109470500D01*
X126387588Y-109470500D01*
X126454627Y-109490185D01*
X126464903Y-109497555D01*
X126467736Y-109499814D01*
X126467738Y-109499816D01*
X126511735Y-109527461D01*
X126618426Y-109594500D01*
X126620478Y-109595789D01*
X126790745Y-109655368D01*
X126790750Y-109655369D01*
X126969996Y-109675565D01*
X126970000Y-109675565D01*
X126970004Y-109675565D01*
X127149249Y-109655369D01*
X127149252Y-109655368D01*
X127149255Y-109655368D01*
X127319522Y-109595789D01*
X127472262Y-109499816D01*
X127599816Y-109372262D01*
X127695789Y-109219522D01*
X127755368Y-109049255D01*
X127755369Y-109049249D01*
X127775565Y-108870003D01*
X127775565Y-108869996D01*
X127755369Y-108690750D01*
X127755368Y-108690745D01*
X127723782Y-108600478D01*
X127695789Y-108520478D01*
X127599816Y-108367738D01*
X127472262Y-108240184D01*
X127319523Y-108144211D01*
X127149254Y-108084631D01*
X127149249Y-108084630D01*
X126970004Y-108064435D01*
X126969996Y-108064435D01*
X126790750Y-108084630D01*
X126790745Y-108084631D01*
X126620476Y-108144211D01*
X126467736Y-108240185D01*
X126464903Y-108242445D01*
X126462724Y-108243334D01*
X126461842Y-108243889D01*
X126461744Y-108243734D01*
X126400217Y-108268855D01*
X126387588Y-108269500D01*
X125804500Y-108269500D01*
X125737461Y-108249815D01*
X125691706Y-108197011D01*
X125680500Y-108145500D01*
X125680499Y-107282129D01*
X125680498Y-107282123D01*
X125674091Y-107222516D01*
X125623797Y-107087671D01*
X125623796Y-107087669D01*
X125561393Y-107004310D01*
X125536977Y-106938847D01*
X125551828Y-106870574D01*
X125561394Y-106855689D01*
X125565656Y-106849996D01*
X125623796Y-106772331D01*
X125674091Y-106637483D01*
X125680500Y-106577873D01*
X125680499Y-105282128D01*
X125674091Y-105222517D01*
X125623796Y-105087669D01*
X125623795Y-105087668D01*
X125623793Y-105087664D01*
X125537547Y-104972455D01*
X125537544Y-104972452D01*
X125422335Y-104886206D01*
X125422328Y-104886202D01*
X125287482Y-104835908D01*
X125287483Y-104835908D01*
X125227883Y-104829501D01*
X125227881Y-104829500D01*
X125227873Y-104829500D01*
X125227864Y-104829500D01*
X122632129Y-104829500D01*
X122632123Y-104829501D01*
X122572516Y-104835908D01*
X122429359Y-104889303D01*
X122428283Y-104886420D01*
X122374932Y-104898009D01*
X122309474Y-104873573D01*
X122267620Y-104817627D01*
X122260286Y-104763524D01*
X122275468Y-104590000D01*
X122255635Y-104363308D01*
X122196739Y-104143504D01*
X122100568Y-103937266D01*
X121970047Y-103750861D01*
X121970045Y-103750858D01*
X121809145Y-103589958D01*
X121808586Y-103589489D01*
X121808407Y-103589220D01*
X121805311Y-103586124D01*
X121805933Y-103585501D01*
X121769885Y-103531317D01*
X121768777Y-103461456D01*
X121805614Y-103402086D01*
X121868702Y-103372057D01*
X121888293Y-103370500D01*
X125627588Y-103370500D01*
X125694627Y-103390185D01*
X125704903Y-103397555D01*
X125707736Y-103399814D01*
X125707738Y-103399816D01*
X125860478Y-103495789D01*
X126030745Y-103555368D01*
X126030750Y-103555369D01*
X126209996Y-103575565D01*
X126210000Y-103575565D01*
X126210004Y-103575565D01*
X126389249Y-103555369D01*
X126389252Y-103555368D01*
X126389255Y-103555368D01*
X126559522Y-103495789D01*
X126712262Y-103399816D01*
X126839816Y-103272262D01*
X126935789Y-103119522D01*
X126995368Y-102949255D01*
X126996583Y-102938465D01*
X127023647Y-102874051D01*
X127081240Y-102834493D01*
X127105922Y-102829124D01*
X127139249Y-102825369D01*
X127139252Y-102825368D01*
X127139255Y-102825368D01*
X127309522Y-102765789D01*
X127462262Y-102669816D01*
X127589816Y-102542262D01*
X127685789Y-102389522D01*
X127745368Y-102219255D01*
X127750974Y-102169500D01*
X127765565Y-102040003D01*
X127765565Y-102039996D01*
X127745369Y-101860750D01*
X127745368Y-101860745D01*
X127732268Y-101823308D01*
X127685789Y-101690478D01*
X127669994Y-101665341D01*
X127644254Y-101624376D01*
X127589816Y-101537738D01*
X127462262Y-101410184D01*
X127399715Y-101370883D01*
X127309523Y-101314211D01*
X127139254Y-101254631D01*
X127139249Y-101254630D01*
X126960004Y-101234435D01*
X126959996Y-101234435D01*
X126780750Y-101254630D01*
X126780745Y-101254631D01*
X126610476Y-101314211D01*
X126457736Y-101410185D01*
X126454903Y-101412445D01*
X126452724Y-101413334D01*
X126451842Y-101413889D01*
X126451744Y-101413734D01*
X126390217Y-101438855D01*
X126377588Y-101439500D01*
X125070097Y-101439500D01*
X125003058Y-101419815D01*
X124982416Y-101403181D01*
X124832766Y-101253531D01*
X124799281Y-101192208D01*
X124800672Y-101133757D01*
X124821665Y-101055409D01*
X124835063Y-101005408D01*
X124855659Y-100770000D01*
X124846035Y-100660000D01*
X130524659Y-100660000D01*
X130543975Y-100856129D01*
X130601188Y-101044733D01*
X130694086Y-101218532D01*
X130694090Y-101218539D01*
X130819116Y-101370883D01*
X130971460Y-101495909D01*
X130971467Y-101495913D01*
X131145266Y-101588811D01*
X131145269Y-101588811D01*
X131145273Y-101588814D01*
X131333868Y-101646024D01*
X131530000Y-101665341D01*
X131726132Y-101646024D01*
X131914727Y-101588814D01*
X131937887Y-101576435D01*
X132084946Y-101497830D01*
X132088538Y-101495910D01*
X132240883Y-101370883D01*
X132365910Y-101218538D01*
X132370640Y-101209687D01*
X132419602Y-101159843D01*
X132487739Y-101144381D01*
X132553419Y-101168211D01*
X132589358Y-101209686D01*
X132592202Y-101215006D01*
X132594091Y-101218539D01*
X132719116Y-101370883D01*
X132871460Y-101495909D01*
X132871467Y-101495913D01*
X133045266Y-101588811D01*
X133045269Y-101588811D01*
X133045273Y-101588814D01*
X133233868Y-101646024D01*
X133430000Y-101665341D01*
X133626132Y-101646024D01*
X133814727Y-101588814D01*
X133837887Y-101576435D01*
X133984946Y-101497830D01*
X133988538Y-101495910D01*
X134140883Y-101370883D01*
X134265910Y-101218538D01*
X134353102Y-101055413D01*
X134358811Y-101044733D01*
X134358811Y-101044732D01*
X134358814Y-101044727D01*
X134416024Y-100856132D01*
X134435341Y-100660000D01*
X134416024Y-100463868D01*
X134358814Y-100275273D01*
X134358811Y-100275269D01*
X134358811Y-100275266D01*
X134265913Y-100101467D01*
X134265909Y-100101460D01*
X134140883Y-99949116D01*
X133988539Y-99824090D01*
X133988532Y-99824086D01*
X133814733Y-99731188D01*
X133814727Y-99731186D01*
X133626132Y-99673976D01*
X133626129Y-99673975D01*
X133430000Y-99654659D01*
X133233870Y-99673975D01*
X133045266Y-99731188D01*
X132871467Y-99824086D01*
X132871460Y-99824090D01*
X132719116Y-99949116D01*
X132594090Y-100101460D01*
X132594088Y-100101464D01*
X132589358Y-100110314D01*
X132540395Y-100160158D01*
X132472257Y-100175618D01*
X132406578Y-100151786D01*
X132370642Y-100110314D01*
X132366481Y-100102531D01*
X132365910Y-100101462D01*
X132365909Y-100101460D01*
X132240883Y-99949116D01*
X132088539Y-99824090D01*
X132088532Y-99824086D01*
X131914733Y-99731188D01*
X131914727Y-99731186D01*
X131726132Y-99673976D01*
X131726129Y-99673975D01*
X131530000Y-99654659D01*
X131333870Y-99673975D01*
X131145266Y-99731188D01*
X130971467Y-99824086D01*
X130971460Y-99824090D01*
X130819116Y-99949116D01*
X130694090Y-100101460D01*
X130694086Y-100101467D01*
X130601188Y-100275266D01*
X130543975Y-100463870D01*
X130524659Y-100660000D01*
X124846035Y-100660000D01*
X124835063Y-100534592D01*
X124773903Y-100306337D01*
X124764841Y-100286905D01*
X124754349Y-100217829D01*
X124782867Y-100154045D01*
X124841343Y-100115804D01*
X124877223Y-100110500D01*
X126957059Y-100110500D01*
X127024098Y-100130185D01*
X127044740Y-100146818D01*
X127137738Y-100239816D01*
X127290478Y-100335789D01*
X127349201Y-100356337D01*
X127460745Y-100395368D01*
X127460750Y-100395369D01*
X127639996Y-100415565D01*
X127640000Y-100415565D01*
X127640004Y-100415565D01*
X127819249Y-100395369D01*
X127819252Y-100395368D01*
X127819255Y-100395368D01*
X127989522Y-100335789D01*
X128142262Y-100239816D01*
X128269816Y-100112262D01*
X128365789Y-99959522D01*
X128425368Y-99789255D01*
X128426241Y-99781506D01*
X128445565Y-99610003D01*
X128445565Y-99609999D01*
X128444707Y-99602385D01*
X128456761Y-99533563D01*
X128504109Y-99482183D01*
X128567927Y-99464500D01*
X128831460Y-99464500D01*
X128872415Y-99471459D01*
X128940737Y-99495366D01*
X128940743Y-99495367D01*
X128940745Y-99495368D01*
X128940746Y-99495368D01*
X128940750Y-99495369D01*
X129119996Y-99515565D01*
X129120000Y-99515565D01*
X129120004Y-99515565D01*
X129299249Y-99495369D01*
X129299252Y-99495368D01*
X129299255Y-99495368D01*
X129469522Y-99435789D01*
X129622262Y-99339816D01*
X129749816Y-99212262D01*
X129845789Y-99059522D01*
X129905368Y-98889255D01*
X129905874Y-98884767D01*
X129925565Y-98710003D01*
X129925565Y-98709996D01*
X129905369Y-98530750D01*
X129905368Y-98530745D01*
X129852420Y-98379429D01*
X129845789Y-98360478D01*
X129756750Y-98218774D01*
X129737751Y-98151538D01*
X129758119Y-98084703D01*
X129774059Y-98065126D01*
X129850047Y-97989139D01*
X129980118Y-97803375D01*
X130034693Y-97759752D01*
X130081692Y-97750500D01*
X130877060Y-97750500D01*
X130944099Y-97770185D01*
X130964741Y-97786819D01*
X130967738Y-97789816D01*
X130998494Y-97809141D01*
X131101930Y-97874135D01*
X131120478Y-97885789D01*
X131205010Y-97915368D01*
X131290745Y-97945368D01*
X131290750Y-97945369D01*
X131469996Y-97965565D01*
X131470000Y-97965565D01*
X131470004Y-97965565D01*
X131649249Y-97945369D01*
X131649252Y-97945368D01*
X131649255Y-97945368D01*
X131819522Y-97885789D01*
X131972262Y-97789816D01*
X132099816Y-97662262D01*
X132195789Y-97509522D01*
X132255368Y-97339255D01*
X132258748Y-97309255D01*
X132275565Y-97160003D01*
X132275565Y-97159996D01*
X132255369Y-96980750D01*
X132255368Y-96980745D01*
X132244872Y-96950750D01*
X132195789Y-96810478D01*
X132176937Y-96780476D01*
X132122289Y-96693504D01*
X132099816Y-96657738D01*
X131972262Y-96530184D01*
X131929287Y-96503181D01*
X131819523Y-96434211D01*
X131649254Y-96374631D01*
X131649249Y-96374630D01*
X131470004Y-96354435D01*
X131469996Y-96354435D01*
X131290750Y-96374630D01*
X131290745Y-96374631D01*
X131120476Y-96434211D01*
X131010713Y-96503181D01*
X130968326Y-96529815D01*
X130967245Y-96530494D01*
X130901273Y-96549500D01*
X130081692Y-96549500D01*
X130014653Y-96529815D01*
X129980119Y-96496625D01*
X129854082Y-96316623D01*
X129850045Y-96310858D01*
X129689141Y-96149954D01*
X129502734Y-96019432D01*
X129502732Y-96019431D01*
X129296497Y-95923261D01*
X129296488Y-95923258D01*
X129076697Y-95864366D01*
X129076693Y-95864365D01*
X129076692Y-95864365D01*
X129076691Y-95864364D01*
X129076686Y-95864364D01*
X128850002Y-95844532D01*
X128849998Y-95844532D01*
X128623313Y-95864364D01*
X128623302Y-95864366D01*
X128403511Y-95923258D01*
X128403502Y-95923261D01*
X128197267Y-96019431D01*
X128197265Y-96019432D01*
X128010858Y-96149954D01*
X127849954Y-96310858D01*
X127719432Y-96497265D01*
X127719431Y-96497267D01*
X127623261Y-96703502D01*
X127623258Y-96703511D01*
X127564366Y-96923302D01*
X127564364Y-96923313D01*
X127544532Y-97149996D01*
X127544532Y-97150001D01*
X127564364Y-97376686D01*
X127564366Y-97376697D01*
X127591237Y-97476983D01*
X127589574Y-97546833D01*
X127550411Y-97604696D01*
X127486182Y-97632199D01*
X127417280Y-97620612D01*
X127383781Y-97596757D01*
X127341337Y-97554313D01*
X126990819Y-97203794D01*
X126957334Y-97142471D01*
X126954500Y-97116113D01*
X126954500Y-96803861D01*
X126974185Y-96736822D01*
X127007375Y-96702287D01*
X127039139Y-96680047D01*
X127200047Y-96519139D01*
X127330568Y-96332734D01*
X127426739Y-96126496D01*
X127485635Y-95906692D01*
X127505468Y-95680000D01*
X127504849Y-95672930D01*
X127497386Y-95587618D01*
X127485635Y-95453308D01*
X127426739Y-95233504D01*
X127330568Y-95027266D01*
X127200047Y-94840861D01*
X127200045Y-94840858D01*
X127039141Y-94679954D01*
X126852734Y-94549432D01*
X126852732Y-94549431D01*
X126646497Y-94453261D01*
X126646488Y-94453258D01*
X126426697Y-94394366D01*
X126426693Y-94394365D01*
X126426692Y-94394365D01*
X126426691Y-94394364D01*
X126426686Y-94394364D01*
X126200002Y-94374532D01*
X126199998Y-94374532D01*
X125973313Y-94394364D01*
X125973302Y-94394366D01*
X125753511Y-94453258D01*
X125753502Y-94453261D01*
X125547267Y-94549431D01*
X125547265Y-94549432D01*
X125360858Y-94679954D01*
X125199953Y-94840859D01*
X125076074Y-95017779D01*
X125021497Y-95061404D01*
X124951999Y-95068598D01*
X124889644Y-95037075D01*
X124854230Y-94976846D01*
X124850499Y-94946662D01*
X124850499Y-93522128D01*
X124844091Y-93462517D01*
X124831945Y-93429953D01*
X124793797Y-93327671D01*
X124793793Y-93327664D01*
X124707547Y-93212455D01*
X124707544Y-93212452D01*
X124592335Y-93126206D01*
X124592328Y-93126202D01*
X124457482Y-93075908D01*
X124457483Y-93075908D01*
X124397883Y-93069501D01*
X124397881Y-93069500D01*
X124397873Y-93069500D01*
X124397864Y-93069500D01*
X122602129Y-93069500D01*
X122602123Y-93069501D01*
X122542516Y-93075908D01*
X122407671Y-93126202D01*
X122407664Y-93126206D01*
X122292455Y-93212452D01*
X122292452Y-93212455D01*
X122206206Y-93327664D01*
X122206202Y-93327671D01*
X122155908Y-93462516D01*
X122153112Y-93488530D01*
X122126374Y-93553081D01*
X122068982Y-93592929D01*
X121999156Y-93595422D01*
X121942142Y-93562955D01*
X121809141Y-93429954D01*
X121622734Y-93299432D01*
X121622728Y-93299429D01*
X121564725Y-93272382D01*
X121512285Y-93226210D01*
X121493133Y-93159017D01*
X121513348Y-93092135D01*
X121564725Y-93047618D01*
X121622734Y-93020568D01*
X121809139Y-92890047D01*
X121970047Y-92729139D01*
X122100568Y-92542734D01*
X122196739Y-92336496D01*
X122255635Y-92116692D01*
X122275468Y-91890000D01*
X122255635Y-91663308D01*
X122196739Y-91443504D01*
X122100568Y-91237266D01*
X121970047Y-91050861D01*
X121970045Y-91050858D01*
X121809141Y-90889954D01*
X121622734Y-90759432D01*
X121622728Y-90759429D01*
X121564725Y-90732382D01*
X121512285Y-90686210D01*
X121493133Y-90619017D01*
X121513348Y-90552135D01*
X121564725Y-90507618D01*
X121622734Y-90480568D01*
X121809139Y-90350047D01*
X121970047Y-90189139D01*
X122100568Y-90002734D01*
X122196739Y-89796496D01*
X122255635Y-89576692D01*
X122275468Y-89350000D01*
X122255635Y-89123308D01*
X122229847Y-89027066D01*
X122231510Y-88957217D01*
X122261939Y-88907294D01*
X122822416Y-88346819D01*
X122883739Y-88313334D01*
X122910097Y-88310500D01*
X123430943Y-88310500D01*
X127067060Y-88310500D01*
X127134099Y-88330185D01*
G37*
%TD.AperFunction*%
%TA.AperFunction,Conductor*%
G36*
X124834052Y-95623391D02*
G01*
X124883458Y-95672796D01*
X124898155Y-95721416D01*
X124914364Y-95906687D01*
X124914366Y-95906697D01*
X124973258Y-96126488D01*
X124973261Y-96126497D01*
X125069431Y-96332732D01*
X125069432Y-96332734D01*
X125199954Y-96519141D01*
X125360856Y-96680043D01*
X125360859Y-96680045D01*
X125360861Y-96680047D01*
X125392623Y-96702286D01*
X125436247Y-96756860D01*
X125445500Y-96803861D01*
X125445500Y-97400552D01*
X125445499Y-97400578D01*
X125445499Y-97554313D01*
X125451901Y-97586496D01*
X125468369Y-97669283D01*
X125474495Y-97700080D01*
X125474496Y-97700083D01*
X125491238Y-97740501D01*
X125531366Y-97837381D01*
X125531372Y-97837392D01*
X125613942Y-97960968D01*
X125613943Y-97960969D01*
X126350795Y-98697819D01*
X126384280Y-98759142D01*
X126379296Y-98828833D01*
X126337425Y-98884767D01*
X126271960Y-98909184D01*
X126263114Y-98909500D01*
X122201692Y-98909500D01*
X122134653Y-98889815D01*
X122100119Y-98856625D01*
X121970047Y-98670861D01*
X121970045Y-98670858D01*
X121809141Y-98509954D01*
X121622734Y-98379432D01*
X121622728Y-98379429D01*
X121564725Y-98352382D01*
X121512285Y-98306210D01*
X121493133Y-98239017D01*
X121513348Y-98172135D01*
X121564725Y-98127618D01*
X121622734Y-98100568D01*
X121809139Y-97970047D01*
X121970047Y-97809139D01*
X122100118Y-97623375D01*
X122154693Y-97579752D01*
X122201692Y-97570500D01*
X122215572Y-97570500D01*
X122282611Y-97590185D01*
X122321167Y-97634346D01*
X122323257Y-97633140D01*
X122325965Y-97637831D01*
X122411639Y-97760185D01*
X122461505Y-97831401D01*
X122628599Y-97998495D01*
X122694438Y-98044596D01*
X122822165Y-98134032D01*
X122822167Y-98134033D01*
X122822170Y-98134035D01*
X123036337Y-98233903D01*
X123036343Y-98233904D01*
X123036344Y-98233905D01*
X123091285Y-98248626D01*
X123264592Y-98295063D01*
X123452918Y-98311539D01*
X123499999Y-98315659D01*
X123500000Y-98315659D01*
X123500001Y-98315659D01*
X123539234Y-98312226D01*
X123735408Y-98295063D01*
X123963663Y-98233903D01*
X124177830Y-98134035D01*
X124371401Y-97998495D01*
X124538495Y-97831401D01*
X124674035Y-97637830D01*
X124773903Y-97423663D01*
X124835063Y-97195408D01*
X124855659Y-96960000D01*
X124835063Y-96724592D01*
X124773903Y-96496337D01*
X124674035Y-96282171D01*
X124674034Y-96282169D01*
X124538496Y-96088600D01*
X124490210Y-96040314D01*
X124416567Y-95966671D01*
X124383084Y-95905351D01*
X124388068Y-95835659D01*
X124429939Y-95779725D01*
X124460915Y-95762810D01*
X124592331Y-95713796D01*
X124700318Y-95632956D01*
X124765779Y-95608540D01*
X124834052Y-95623391D01*
G37*
%TD.AperFunction*%
%TA.AperFunction,Conductor*%
G36*
X138035703Y-73577213D02*
G01*
X138071340Y-73629401D01*
X138088894Y-73678793D01*
X138088893Y-73678793D01*
X138221098Y-73933935D01*
X138386812Y-74168700D01*
X138471923Y-74259831D01*
X138582947Y-74378708D01*
X138805853Y-74560055D01*
X139051382Y-74709365D01*
X139238237Y-74790526D01*
X139314942Y-74823844D01*
X139591642Y-74901371D01*
X139841920Y-74935771D01*
X139876321Y-74940500D01*
X139876322Y-74940500D01*
X140163679Y-74940500D01*
X140194370Y-74936281D01*
X140448358Y-74901371D01*
X140725058Y-74823844D01*
X140838015Y-74774779D01*
X140988617Y-74709365D01*
X140988620Y-74709363D01*
X140988625Y-74709361D01*
X141234147Y-74560055D01*
X141457053Y-74378708D01*
X141653189Y-74168698D01*
X141818901Y-73933936D01*
X141951104Y-73678797D01*
X141958659Y-73657538D01*
X141999657Y-73600962D01*
X142064734Y-73575531D01*
X142133230Y-73589321D01*
X142183396Y-73637953D01*
X142199500Y-73699063D01*
X142199500Y-77706311D01*
X142179815Y-77773350D01*
X142127011Y-77819105D01*
X142057853Y-77829049D01*
X142032168Y-77822493D01*
X141947485Y-77790909D01*
X141947483Y-77790908D01*
X141887883Y-77784501D01*
X141887881Y-77784500D01*
X141887873Y-77784500D01*
X141887864Y-77784500D01*
X140792129Y-77784500D01*
X140792123Y-77784501D01*
X140732516Y-77790908D01*
X140597671Y-77841202D01*
X140597664Y-77841206D01*
X140482455Y-77927452D01*
X140482452Y-77927455D01*
X140396201Y-78042670D01*
X140395193Y-78044518D01*
X140393705Y-78046005D01*
X140390888Y-78049769D01*
X140390346Y-78049363D01*
X140345785Y-78093920D01*
X140277511Y-78108767D01*
X140212048Y-78084346D01*
X140177535Y-78044514D01*
X140173797Y-78037669D01*
X140087547Y-77922455D01*
X140087544Y-77922452D01*
X139972335Y-77836206D01*
X139972328Y-77836202D01*
X139837482Y-77785908D01*
X139837483Y-77785908D01*
X139777883Y-77779501D01*
X139777881Y-77779500D01*
X139777873Y-77779500D01*
X139777864Y-77779500D01*
X138682129Y-77779500D01*
X138682123Y-77779501D01*
X138622516Y-77785908D01*
X138487671Y-77836202D01*
X138487664Y-77836206D01*
X138372455Y-77922452D01*
X138372452Y-77922455D01*
X138286206Y-78037664D01*
X138286202Y-78037671D01*
X138235908Y-78172517D01*
X138229501Y-78232116D01*
X138229500Y-78232135D01*
X138229500Y-79327870D01*
X138229501Y-79327876D01*
X138235908Y-79387483D01*
X138286202Y-79522328D01*
X138286204Y-79522331D01*
X138292231Y-79530382D01*
X138316648Y-79595846D01*
X138303105Y-79659470D01*
X138303518Y-79659641D01*
X138302595Y-79661869D01*
X138302324Y-79663143D01*
X138301188Y-79665267D01*
X138243975Y-79853870D01*
X138224659Y-80050000D01*
X138243975Y-80246129D01*
X138243976Y-80246132D01*
X138295729Y-80416739D01*
X138301188Y-80434733D01*
X138394086Y-80608532D01*
X138397473Y-80613601D01*
X138395836Y-80614694D01*
X138419596Y-80670663D01*
X138407795Y-80739529D01*
X138397109Y-80756156D01*
X138397473Y-80756399D01*
X138394086Y-80761467D01*
X138301188Y-80935266D01*
X138243975Y-81123871D01*
X138237951Y-81185025D01*
X138236166Y-81197055D01*
X138225500Y-81250684D01*
X138225500Y-81305369D01*
X138224903Y-81317521D01*
X138224659Y-81319998D01*
X138224903Y-81322476D01*
X138225500Y-81334631D01*
X138225500Y-81399310D01*
X138238118Y-81462750D01*
X138239903Y-81474785D01*
X138243975Y-81516128D01*
X138243975Y-81516130D01*
X138243976Y-81516132D01*
X138274238Y-81615891D01*
X138301188Y-81704733D01*
X138394086Y-81878532D01*
X138394090Y-81878539D01*
X138519116Y-82030883D01*
X138671460Y-82155909D01*
X138671467Y-82155913D01*
X138845266Y-82248811D01*
X138845269Y-82248811D01*
X138845273Y-82248814D01*
X139033868Y-82306024D01*
X139230000Y-82325341D01*
X139426132Y-82306024D01*
X139614727Y-82248814D01*
X139631197Y-82240011D01*
X139750780Y-82176092D01*
X139788538Y-82155910D01*
X139847347Y-82107646D01*
X139911655Y-82080334D01*
X139926011Y-82079500D01*
X140637896Y-82079500D01*
X140704935Y-82099185D01*
X140716561Y-82107647D01*
X140781460Y-82160909D01*
X140781467Y-82160913D01*
X140955266Y-82253811D01*
X140955269Y-82253811D01*
X140955273Y-82253814D01*
X141143868Y-82311024D01*
X141340000Y-82330341D01*
X141536132Y-82311024D01*
X141724727Y-82253814D01*
X141734082Y-82248814D01*
X141855970Y-82183663D01*
X141898538Y-82160910D01*
X141996835Y-82080238D01*
X142061144Y-82052926D01*
X142130012Y-82064717D01*
X142181572Y-82111869D01*
X142199500Y-82176092D01*
X142199500Y-85621019D01*
X142179815Y-85688058D01*
X142127011Y-85733813D01*
X142057853Y-85743757D01*
X142004378Y-85722595D01*
X141949206Y-85683964D01*
X141942734Y-85679432D01*
X141942732Y-85679431D01*
X141736497Y-85583261D01*
X141736488Y-85583258D01*
X141516697Y-85524366D01*
X141516693Y-85524365D01*
X141516692Y-85524365D01*
X141516691Y-85524364D01*
X141516686Y-85524364D01*
X141290002Y-85504532D01*
X141289998Y-85504532D01*
X141063313Y-85524364D01*
X141063302Y-85524366D01*
X140843511Y-85583258D01*
X140843502Y-85583261D01*
X140720760Y-85640498D01*
X140700954Y-85649734D01*
X140694203Y-85652882D01*
X140641798Y-85664500D01*
X139511960Y-85664500D01*
X139444921Y-85644815D01*
X139440851Y-85642084D01*
X139417830Y-85625965D01*
X139415891Y-85625061D01*
X139339159Y-85589280D01*
X139203663Y-85526097D01*
X139203659Y-85526096D01*
X139203655Y-85526094D01*
X138975413Y-85464938D01*
X138975403Y-85464936D01*
X138740001Y-85444341D01*
X138739999Y-85444341D01*
X138504596Y-85464936D01*
X138504586Y-85464938D01*
X138276344Y-85526094D01*
X138276335Y-85526098D01*
X138062171Y-85625964D01*
X138062169Y-85625965D01*
X137868597Y-85761505D01*
X137701505Y-85928597D01*
X137565965Y-86122169D01*
X137565964Y-86122171D01*
X137466098Y-86336335D01*
X137466094Y-86336344D01*
X137404938Y-86564586D01*
X137404936Y-86564596D01*
X137384341Y-86799999D01*
X137384341Y-86800000D01*
X137404936Y-87035403D01*
X137404938Y-87035413D01*
X137450529Y-87205562D01*
X137448866Y-87275412D01*
X137409703Y-87333274D01*
X137345475Y-87360778D01*
X137276572Y-87349191D01*
X137264783Y-87342649D01*
X137219525Y-87314212D01*
X137049254Y-87254631D01*
X137049249Y-87254630D01*
X136870004Y-87234435D01*
X136869996Y-87234435D01*
X136690750Y-87254630D01*
X136690737Y-87254633D01*
X136622415Y-87278541D01*
X136581460Y-87285500D01*
X131033096Y-87285500D01*
X130966057Y-87265815D01*
X130920302Y-87213011D01*
X130910358Y-87143853D01*
X130939383Y-87080297D01*
X130945415Y-87073819D01*
X130983831Y-87035403D01*
X131587520Y-86431716D01*
X131666577Y-86294784D01*
X131707501Y-86142057D01*
X131707501Y-85983942D01*
X131707501Y-85976347D01*
X131707500Y-85976329D01*
X131707500Y-85579090D01*
X131727185Y-85512051D01*
X131779101Y-85466706D01*
X131784830Y-85464035D01*
X131978401Y-85328495D01*
X132145495Y-85161401D01*
X132281035Y-84967830D01*
X132380903Y-84753663D01*
X132442063Y-84525408D01*
X132462659Y-84290000D01*
X132442063Y-84054592D01*
X132380903Y-83826337D01*
X132342463Y-83743904D01*
X132331972Y-83674827D01*
X132360492Y-83611043D01*
X132418968Y-83572804D01*
X132454846Y-83567500D01*
X134525719Y-83567500D01*
X134592758Y-83587185D01*
X134613400Y-83603819D01*
X134800181Y-83790600D01*
X134833666Y-83851923D01*
X134836500Y-83878281D01*
X134836500Y-85187870D01*
X134836501Y-85187876D01*
X134842908Y-85247483D01*
X134893202Y-85382328D01*
X134893206Y-85382335D01*
X134979452Y-85497544D01*
X134979455Y-85497547D01*
X135094664Y-85583793D01*
X135094671Y-85583797D01*
X135229517Y-85634091D01*
X135229516Y-85634091D01*
X135236444Y-85634835D01*
X135289127Y-85640500D01*
X137084872Y-85640499D01*
X137144483Y-85634091D01*
X137279331Y-85583796D01*
X137394546Y-85497546D01*
X137480796Y-85382331D01*
X137531091Y-85247483D01*
X137537500Y-85187873D01*
X137537499Y-83392128D01*
X137531091Y-83332517D01*
X137515055Y-83289523D01*
X137480797Y-83197671D01*
X137480793Y-83197664D01*
X137394547Y-83082455D01*
X137394544Y-83082452D01*
X137279335Y-82996206D01*
X137279328Y-82996202D01*
X137144482Y-82945908D01*
X137144483Y-82945908D01*
X137084883Y-82939501D01*
X137084881Y-82939500D01*
X137084873Y-82939500D01*
X137084865Y-82939500D01*
X135775281Y-82939500D01*
X135708242Y-82919815D01*
X135687600Y-82903181D01*
X135237011Y-82452591D01*
X135237010Y-82452590D01*
X135202400Y-82429465D01*
X135202399Y-82429464D01*
X135134238Y-82383920D01*
X135134226Y-82383913D01*
X135100785Y-82370062D01*
X135020035Y-82336614D01*
X135020027Y-82336612D01*
X134898807Y-82312500D01*
X134898803Y-82312500D01*
X124900981Y-82312500D01*
X124833942Y-82292815D01*
X124788187Y-82240011D01*
X124778243Y-82170853D01*
X124781208Y-82156401D01*
X124784960Y-82142401D01*
X124821327Y-82082742D01*
X124884176Y-82052216D01*
X124904733Y-82050500D01*
X137395890Y-82050500D01*
X137395892Y-82050500D01*
X137523186Y-82016392D01*
X137637314Y-81950500D01*
X137730500Y-81857314D01*
X137796392Y-81743186D01*
X137830500Y-81615892D01*
X137830500Y-73670926D01*
X137850185Y-73603887D01*
X137902989Y-73558132D01*
X137972147Y-73548188D01*
X138035703Y-73577213D01*
G37*
%TD.AperFunction*%
%TA.AperFunction,Conductor*%
G36*
X129921855Y-84956546D02*
G01*
X129938575Y-84975842D01*
X130068500Y-85161395D01*
X130068505Y-85161401D01*
X130235599Y-85328495D01*
X130332384Y-85396265D01*
X130429165Y-85464032D01*
X130429167Y-85464033D01*
X130429170Y-85464035D01*
X130434898Y-85466706D01*
X130487339Y-85512872D01*
X130506500Y-85579090D01*
X130506500Y-85762902D01*
X130486815Y-85829941D01*
X130470181Y-85850583D01*
X130147584Y-86173181D01*
X130086261Y-86206666D01*
X130059903Y-86209500D01*
X125256096Y-86209500D01*
X125189057Y-86189815D01*
X125143302Y-86137011D01*
X125133358Y-86067853D01*
X125162383Y-86004297D01*
X125168415Y-85997819D01*
X125351970Y-85814264D01*
X125543470Y-85622763D01*
X125604791Y-85589280D01*
X125663238Y-85590670D01*
X125791592Y-85625063D01*
X125968034Y-85640500D01*
X126026999Y-85645659D01*
X126027000Y-85645659D01*
X126027001Y-85645659D01*
X126085966Y-85640500D01*
X126262408Y-85625063D01*
X126490663Y-85563903D01*
X126704830Y-85464035D01*
X126898401Y-85328495D01*
X127065495Y-85161401D01*
X127195425Y-84975842D01*
X127250002Y-84932217D01*
X127319500Y-84925023D01*
X127381855Y-84956546D01*
X127398575Y-84975842D01*
X127528500Y-85161395D01*
X127528505Y-85161401D01*
X127695599Y-85328495D01*
X127792384Y-85396265D01*
X127889165Y-85464032D01*
X127889167Y-85464033D01*
X127889170Y-85464035D01*
X128103337Y-85563903D01*
X128331592Y-85625063D01*
X128508034Y-85640500D01*
X128566999Y-85645659D01*
X128567000Y-85645659D01*
X128567001Y-85645659D01*
X128625966Y-85640500D01*
X128802408Y-85625063D01*
X129030663Y-85563903D01*
X129244830Y-85464035D01*
X129438401Y-85328495D01*
X129605495Y-85161401D01*
X129735425Y-84975842D01*
X129790002Y-84932217D01*
X129859500Y-84925023D01*
X129921855Y-84956546D01*
G37*
%TD.AperFunction*%
%TA.AperFunction,Conductor*%
G36*
X120245621Y-82810402D02*
G01*
X120317266Y-82860568D01*
X120523504Y-82956739D01*
X120743308Y-83015635D01*
X120905230Y-83029801D01*
X120969998Y-83035468D01*
X120970000Y-83035468D01*
X120970002Y-83035468D01*
X121026673Y-83030509D01*
X121196692Y-83015635D01*
X121335387Y-82978472D01*
X121405237Y-82980135D01*
X121463099Y-83019298D01*
X121490603Y-83083526D01*
X121490700Y-83084363D01*
X121494630Y-83119250D01*
X121494631Y-83119254D01*
X121554211Y-83289523D01*
X121618683Y-83392129D01*
X121650184Y-83442262D01*
X121777738Y-83569816D01*
X121843350Y-83611043D01*
X121889417Y-83639989D01*
X121930478Y-83665789D01*
X122054388Y-83709147D01*
X122100745Y-83725368D01*
X122100750Y-83725369D01*
X122279996Y-83745565D01*
X122280000Y-83745565D01*
X122280004Y-83745565D01*
X122459249Y-83725369D01*
X122459252Y-83725368D01*
X122459255Y-83725368D01*
X122629522Y-83665789D01*
X122755700Y-83586505D01*
X122821672Y-83567500D01*
X124679154Y-83567500D01*
X124746193Y-83587185D01*
X124791948Y-83639989D01*
X124801892Y-83709147D01*
X124791536Y-83743905D01*
X124753098Y-83826335D01*
X124753094Y-83826344D01*
X124691938Y-84054586D01*
X124691936Y-84054596D01*
X124671341Y-84289999D01*
X124671341Y-84290000D01*
X124691936Y-84525403D01*
X124691938Y-84525413D01*
X124726327Y-84653756D01*
X124724664Y-84723606D01*
X124694233Y-84773530D01*
X124394582Y-85073182D01*
X124333262Y-85106666D01*
X124306903Y-85109500D01*
X123092412Y-85109500D01*
X123025373Y-85089815D01*
X123015097Y-85082445D01*
X123012263Y-85080185D01*
X123012262Y-85080184D01*
X122955496Y-85044515D01*
X122859523Y-84984211D01*
X122689254Y-84924631D01*
X122689249Y-84924630D01*
X122510004Y-84904435D01*
X122509996Y-84904435D01*
X122330750Y-84924630D01*
X122330745Y-84924631D01*
X122160476Y-84984211D01*
X122007737Y-85080184D01*
X121880184Y-85207737D01*
X121784211Y-85360476D01*
X121724631Y-85530745D01*
X121724630Y-85530749D01*
X121722939Y-85545765D01*
X121695872Y-85610179D01*
X121638277Y-85649734D01*
X121568440Y-85651871D01*
X121547314Y-85644263D01*
X121542622Y-85642075D01*
X121416496Y-85583261D01*
X121416492Y-85583260D01*
X121416488Y-85583258D01*
X121196697Y-85524366D01*
X121196693Y-85524365D01*
X121196692Y-85524365D01*
X121196691Y-85524364D01*
X121196686Y-85524364D01*
X120970002Y-85504532D01*
X120969998Y-85504532D01*
X120743313Y-85524364D01*
X120743302Y-85524366D01*
X120523511Y-85583258D01*
X120523502Y-85583261D01*
X120317267Y-85679431D01*
X120245622Y-85729597D01*
X120179416Y-85751924D01*
X120111649Y-85734912D01*
X120063836Y-85683964D01*
X120050500Y-85628021D01*
X120050500Y-82911978D01*
X120070185Y-82844939D01*
X120122989Y-82799184D01*
X120192147Y-82789240D01*
X120245621Y-82810402D01*
G37*
%TD.AperFunction*%
%TD*%
M02*
